<svg width="1364" height="1179" viewBox="0 0 1364 1179" fill="none" xmlns="http://www.w3.org/2000/svg">
<g clip-path="url(#clip0_1828_2073)">
<rect width="1178.71" height="1363.55" transform="translate(1363.55 5.96025e-05) rotate(90)" fill="white"/>
<path d="M263.212 601.55L267.396 385.966L33.3586 407.931L46.6201 638.831L253.649 645.929L289.437 653.139L263.212 601.55Z" fill="#FFE0E5"/>
<path d="M928.419 550.671C928.419 564.907 939.959 576.447 954.195 576.447C968.43 576.447 979.971 564.907 979.971 550.671C979.971 536.436 968.43 524.896 954.195 524.896C939.959 524.896 928.419 536.436 928.419 550.671Z" fill="#FFE0E5"/>
<path d="M934.619 550.671C934.619 561.481 943.383 570.245 954.193 570.245C965.004 570.245 973.768 561.481 973.768 550.671C973.768 539.86 965.004 531.096 954.193 531.096C943.383 531.096 934.619 539.86 934.619 550.671Z" fill="#FFC1C5"/>
<path d="M884.711 610.927L713.5 528.5L677.532 525.456L719.745 448.838L913 555.5L884.711 610.927Z" fill="#FFE0E5"/>
<path d="M655.529 523.251L439.833 509.28L439.833 429.898L452.87 414.357L702.336 439.536L655.529 523.251Z" fill="#FFE0E5"/>
<path d="M921.096 535.989L729.5 431L762.294 371.621L964.056 474.239L983.145 518.731L921.096 535.989Z" fill="#FFE0E5"/>
<path d="M907.983 732.26L907.573 732.111L629.38 635.507L664.495 549.065L708 551L880 634L955.501 726.843L907.983 732.26Z" fill="#FFE0E5"/>
<path d="M1000.33 630.39L1135.33 823.335L1078.1 868.91L997.19 745.485L987.627 730.542L1000.33 630.39Z" fill="#FFE0E5"/>
<path d="M970.369 713.096L894.311 615.148L915.492 572.449L987.627 572.449L978.624 641.857L970.369 713.096Z" fill="#FFE0E5"/>
<path d="M938.167 550.67C938.167 559.521 945.342 566.696 954.193 566.696C963.044 566.696 970.219 559.521 970.219 550.67C970.219 541.82 963.044 534.645 954.193 534.645C945.342 534.645 938.167 541.82 938.167 550.67Z" fill="#FFE0E5"/>
<path d="M940.969 939.7L894.535 877.166L907.311 735.1L907.573 732.111L907.648 731.439L955.501 726.844L961.254 735.1L1044.6 853.93L986.208 878.175L940.969 939.7Z" fill="#FFE0E5"/>
<path d="M883.478 867.005L851.837 826.399L587.466 738.761L588.923 735.1L625.009 646.341L880.004 735.1L897.113 741.039L883.478 867.005Z" fill="#FFE0E5"/>
<path d="M572.711 730.915L439.834 677.682L439.834 531.992L645.182 545.889L572.711 730.915Z" fill="#FFE0E5"/>
<path d="M711.601 421.155L621.46 412.078L678.279 307.555L685.04 295.152L698.9 308.302L749.106 355.894L711.601 421.155Z" fill="#FFE0E5"/>
<path d="M605.697 410.398L454.291 395.156L472.895 332.547L624.188 375.469L605.697 410.398Z" fill="#FFE0E5"/>
<path d="M656.798 457.265L621.673 454.13L617.562 500.194L652.687 503.329L656.798 457.265Z" fill="#FFC1C5"/>
<path d="M605.958 444.3L570.834 441.165L565.198 504.308L600.323 507.443L605.958 444.3Z" fill="#FFC1C5"/>
<path d="M562.884 440.626L527.759 437.491L522.123 500.634L557.248 503.769L562.884 440.626Z" fill="#FFC1C5"/>
<path d="M519.306 436.533L473.614 432.455L467.992 495.449L513.684 499.527L519.306 436.533Z" fill="#FFC1C5"/>
<path d="M807.08 514.165L727.909 475.38L710.176 511.577L789.347 550.363L807.08 514.165Z" fill="#FFC1C5"/>
<path d="M960.207 604.277C957.929 602.559 953.409 601.662 953.409 601.662C953.409 601.662 951.391 597.03 949.075 594.901C947.058 592.996 942.986 591.277 942.986 591.277C942.986 591.277 938.354 592.211 936.075 594.004C934.021 595.573 931.966 599.309 931.966 599.309C931.966 599.309 927.035 599.309 924.308 600.579C921.693 601.812 918.742 605.398 918.742 605.398C918.742 605.398 918.331 610.105 919.153 612.944C919.975 615.746 922.739 619.444 922.739 619.444C922.739 619.444 921.394 624.3 921.805 627.401C922.104 629.68 923.673 632.93 923.673 632.93C923.673 632.93 928.679 635.208 932.078 634.835C935.478 634.499 938.167 633.004 938.167 633.004C938.167 633.004 941.641 635.694 944.256 636.628C947.17 637.599 952.064 637.487 952.064 637.487C952.064 637.487 955.501 634.2 956.659 631.062C957.667 628.298 957.929 622.844 957.929 622.844C957.929 622.844 961.926 619.295 963.271 616.306C964.317 613.915 964.578 609.694 964.578 609.694C964.578 609.694 962.449 605.809 960.282 604.203L960.207 604.277Z" fill="#FFC1C5"/>
<path d="M352.307 661.619C340.914 661.619 330.08 659.116 320.368 654.558C312.336 650.823 305.051 645.668 298.85 639.466C285.178 625.794 276.698 606.854 276.698 586.009L276.698 469.271C276.698 438.9 294.554 412.751 320.368 400.684C330.08 396.127 340.876 393.624 352.307 393.624C373.19 393.624 392.092 402.104 405.764 415.776C419.437 429.449 427.917 448.389 427.917 469.233L427.917 585.972C427.917 627.737 394.072 661.619 352.27 661.619L352.307 661.619Z" fill="#FFC1C5"/>
<path d="M352.307 661.619C340.914 661.619 330.08 659.116 320.368 654.558C312.336 650.823 305.051 645.668 298.85 639.466C285.178 625.794 276.698 606.854 276.698 586.009L276.698 469.271C276.698 438.9 294.554 412.751 320.368 400.684C330.08 396.127 340.876 393.624 352.307 393.624C373.19 393.624 392.092 402.104 405.764 415.776C419.437 429.449 427.917 448.389 427.917 469.233L427.917 585.972C427.917 627.737 394.072 661.619 352.27 661.619L352.307 661.619Z" fill="#FFC1C5"/>
<path d="M280.919 469.234C280.919 455.375 284.879 441.964 292.388 430.383C299.71 419.139 309.983 410.173 322.161 404.495C331.612 400.087 341.773 397.846 352.307 397.846C371.396 397.846 389.29 405.242 402.776 418.728C416.261 432.214 423.658 450.145 423.658 469.196L423.658 585.935C423.658 605.024 416.261 622.918 402.738 636.404C389.215 649.889 371.322 657.286 352.27 657.286C333.218 657.286 331.612 655.044 322.123 650.636C314.577 647.125 307.704 642.306 301.802 636.366C288.316 622.881 280.919 604.95 280.919 585.898L280.919 469.159L280.919 469.234Z" stroke="white" stroke-width="0.336207" stroke-miterlimit="10"/>
<path d="M285.179 469.234C285.179 456.197 288.914 443.57 295.975 432.7C302.848 422.09 312.561 413.685 323.955 408.343C332.883 404.197 342.409 402.067 352.308 402.067C370.239 402.067 387.124 409.053 399.788 421.754C412.452 434.418 419.475 451.303 419.475 469.234L419.475 585.973C419.475 603.904 412.489 620.789 399.788 633.453C387.124 646.117 370.239 653.14 352.308 653.14C334.377 653.14 332.845 651.048 323.955 646.864C316.857 643.539 310.394 639.019 304.828 633.453C292.164 620.789 285.141 603.904 285.141 585.973L285.141 469.234L285.179 469.234Z" stroke="white" stroke-width="0.336207" stroke-miterlimit="10"/>
<path d="M289.437 469.234C289.437 457.019 292.949 445.177 299.561 435.053C306.023 425.116 315.101 417.234 325.785 412.228C334.115 408.343 343.044 406.363 352.345 406.363C369.156 406.363 384.958 412.901 396.799 424.78C408.679 436.659 415.216 452.461 415.216 469.234L415.216 585.973C415.216 602.783 408.679 618.585 396.799 630.427C384.92 642.306 369.156 648.844 352.345 648.844C335.535 648.844 334.115 646.864 325.785 642.979C319.136 639.841 313.121 635.657 307.854 630.427C295.975 618.548 289.437 602.783 289.437 585.973L289.437 469.234Z" stroke="white" stroke-width="0.336207" stroke-miterlimit="10"/>
<path d="M476.555 373.042C475.734 371.062 476.07 369.642 476.555 367.55C477.415 363.74 479.245 361.723 482.383 359.556C485.446 357.464 487.837 356.231 491.423 357.053C495.757 358.062 498.857 361.013 499.305 365.645C499.754 369.978 497.475 372.855 494.038 375.432C490.303 378.271 486.716 378.757 482.346 377.225C479.731 376.292 477.601 375.694 476.518 373.042L476.555 373.042Z" fill="#FFC1C5"/>
<path d="M659.49 603.38C659.565 604.389 659.789 605.36 660.162 606.331C661.021 608.535 662.292 612.719 661.694 615.745C660.797 620.078 659.266 621.872 665.019 622.133C670.771 622.395 684.182 625.719 684.93 631.323C685.714 636.926 682.389 644.846 680.708 644.995C679.027 645.145 675.329 648.693 671.108 637.599C671.108 637.599 670.323 632.107 660.536 632.481C650.711 632.854 647.274 635.544 649.292 618.061C649.292 618.061 653.513 611.3 653.513 605.808C653.513 600.317 654.223 598.076 657.024 598.972C658.855 599.57 659.378 601.886 659.49 603.418L659.49 603.38Z" fill="#FFC1C5"/>
<path d="M630.24 364.15L476.07 321.04L491.461 269.489L511.484 202.546L641.335 269.489L659.116 278.641L672.639 285.627L665.766 298.29L630.24 364.15Z" fill="#FFE0E5"/>
<path d="M428.216 676.562L386.825 668.53L428.216 636.18L428.216 676.562Z" fill="#FFE0E5"/>
<path d="M431.503 427.395L401.581 396.426L435.052 389.739L431.503 427.395Z" fill="#FFE0E5"/>
<path d="M692.139 869.47L716.57 795.766L582.573 751.088L526.762 913.513L628.67 946.761L657.285 858.039L692.139 869.47Z" fill="#FFE0E5"/>
<path d="M393.549 385.967L320.368 380.662L284.879 378.047L291.715 242.294L476.069 256.863L472.184 269.489L439.833 375.582L393.549 385.967Z" fill="#FFE0E5"/>
<path d="M555.227 470.691L546.149 469.906L544.879 469.794L545.439 463.443L546 457.093L546.56 450.742L547.12 444.392L548.391 444.504M546.149 469.906L546.71 463.556M548.391 444.504L557.468 445.288M548.391 444.504L547.83 450.854L552.388 451.265L551.267 463.966M556.908 451.676L555.787 464.377L555.227 470.728L556.497 470.84L557.618 458.139L558.738 445.438L557.468 445.326L556.908 451.676ZM557.618 458.139L546 457.13M555.787 464.377L551.23 463.966M556.908 451.676L552.35 451.265M547.83 450.892L546.71 463.593L551.267 464.004" stroke="white" stroke-width="0.261495"/>
<path d="M639.093 493.702L637.599 493.59L638.234 486.119L638.869 478.648M639.093 493.702L649.739 494.636M639.093 493.702L639.728 486.231M652.392 464.751L641.745 463.817L640.251 463.705L639.616 471.176L638.981 478.648M641.745 463.817L641.11 471.288M650.412 487.202L649.777 494.674L651.271 494.786L652.579 479.843L638.906 478.648M650.412 487.202L651.719 472.26M650.412 487.202L645.07 486.717M652.616 479.843L653.923 464.901L652.429 464.788L651.794 472.26M641.073 471.288L639.765 486.231L645.107 486.717L646.415 471.774L651.757 472.26M641.11 471.326L646.452 471.811" stroke="white" stroke-width="0.336207"/>
<path d="M622.804 492.32L621.31 492.208L621.945 484.737L622.58 477.266M622.804 492.32L633.451 493.254M622.804 492.32L623.439 484.849M636.103 463.406L625.457 462.472L623.962 462.36L623.327 469.832L622.692 477.303M625.457 462.472L624.822 469.944M636.29 478.424L634.982 493.366L633.488 493.254L634.123 485.783M634.123 485.783L635.431 470.84M634.123 485.783L628.781 485.297M636.327 478.424L637.635 463.481L636.141 463.369L635.505 470.84M622.655 477.266L636.327 478.461M630.126 470.392L624.784 469.906L623.477 484.849L628.819 485.335L630.126 470.392ZM630.126 470.392L635.468 470.878" stroke="white" stroke-width="0.336207"/>
<path d="M716.905 509.205L715.561 508.57L718.848 501.846L722.135 495.122M722.135 495.047L734.426 501.099L727.851 514.547L726.506 513.912L716.905 509.205M716.905 509.205L720.193 502.481M726.506 513.912L729.793 507.188M720.193 502.481L726.768 489.033M720.193 502.481L725.012 504.834L731.587 491.386M739.693 486.941L730.092 482.234L728.747 481.599L725.46 488.323L722.173 495.047M730.092 482.234L726.805 488.958M734.5 501.061L741.075 487.613L739.73 486.978L736.443 493.702L731.624 491.349L726.805 488.995M736.368 493.702L729.793 507.15L724.974 504.797" stroke="white" stroke-width="0.336207"/>
<path d="M754.747 494.487L745.147 489.78L743.802 489.145L740.514 495.869L737.227 502.593L733.94 509.317L730.652 516.041L731.997 516.676M749.517 508.57L742.943 522.018L741.598 521.383L731.997 516.676M745.147 489.78L741.859 496.504L735.285 509.952L731.997 516.676M751.46 501.211L744.885 514.659L741.598 521.383M735.285 509.952L740.104 512.306L746.678 498.857L751.497 501.211M744.885 514.659L740.066 512.306M749.555 508.533L756.129 495.084L754.785 494.449L751.497 501.173M737.227 502.556L749.517 508.607M741.859 496.466L746.678 498.82" stroke="white" stroke-width="0.336207"/>
<path d="M746.903 524.074L745.558 523.439L748.846 516.715L752.133 509.991M764.423 515.968L757.849 529.416L756.504 528.781L746.903 524.074M756.765 503.902L750.191 517.35L746.903 524.074M756.504 528.781L759.791 522.057M750.191 517.35L755.01 519.703M769.728 501.847L760.127 497.14L758.783 496.505L755.495 503.229L752.208 509.953M760.127 497.14L756.84 503.864M764.498 515.968L771.073 502.519L769.728 501.884L766.441 508.608M752.17 509.953L764.461 516.005M755.01 519.703L759.829 522.057L766.403 508.608M755.01 519.703L761.584 506.255M756.803 503.864L761.622 506.218L766.441 508.571" stroke="white" stroke-width="0.336207"/>
<path d="M761.846 531.47L760.501 530.835L763.789 524.111L767.076 517.387M761.846 531.47L771.447 536.177M761.846 531.47L765.134 524.746M784.634 509.243L775.033 504.536L773.688 503.901L770.401 510.626L767.114 517.35L779.404 523.401M775.033 504.536L771.746 511.261M781.346 516.005L774.772 529.453L771.484 536.177L772.829 536.812L779.404 523.364M774.772 529.453L769.953 527.1L776.527 513.651M779.441 523.364L786.016 509.916L784.671 509.281L781.384 516.005M769.99 527.1L765.171 524.746L771.746 511.298L776.565 513.651M781.346 515.968L776.527 513.614" stroke="white" stroke-width="0.336207"/>
<path d="M776.788 538.867L775.443 538.232L778.731 531.508L782.018 524.784M794.308 530.761L787.734 544.209L786.389 543.574L776.788 538.867M786.65 518.694L780.076 532.143L776.788 538.867M786.389 543.574L789.676 536.85M780.076 532.143L784.895 534.496L789.714 536.85L796.288 523.401M799.576 516.64L789.975 511.933L788.63 511.298L785.343 518.022L782.055 524.746M789.975 511.933L786.688 518.657L791.507 521.011L796.326 523.364L799.613 516.64L800.958 517.275L794.383 530.723M782.018 524.746L794.308 530.798M784.895 534.459L791.469 521.011" stroke="white" stroke-width="0.336207"/>
<path d="M540.062 469.421L530.984 468.637L529.714 468.525L530.274 462.174L530.834 455.824L542.452 456.832L543.573 444.131L542.303 444.019L541.743 450.37L537.185 449.959M530.984 468.637L531.544 462.286M531.544 462.286L532.665 449.585L537.222 449.996L536.102 462.697L531.544 462.286ZM533.225 443.197L531.955 443.085L531.395 449.436L530.834 455.786M533.225 443.197L542.303 443.982M533.225 443.197L532.665 449.548M542.452 456.87L541.332 469.571L540.062 469.459L540.622 463.108M541.78 450.37L540.659 463.071L536.102 462.66" stroke="white" stroke-width="0.261495"/>
<path d="M552.725 498.334L543.647 497.55L542.377 497.438L542.937 491.087L543.498 484.736L555.115 485.745M543.647 497.55L544.207 491.199M545.926 472.147L544.656 472.035L544.095 478.386L543.535 484.736M555.153 485.745L556.273 473.044L555.003 472.932L545.926 472.147M545.926 472.147L545.365 478.498M555.003 472.932L554.443 479.282M545.365 478.498L544.245 491.199L548.802 491.61M545.365 478.498L549.923 478.909M555.153 485.782L554.032 498.484L552.762 498.371L553.322 492.021M548.728 491.573L553.285 491.984L554.406 479.282L549.848 478.871M548.765 491.573L549.886 478.871" stroke="white" stroke-width="0.261495"/>
<path d="M537.595 497.026L528.518 496.242L527.248 496.13L527.808 489.779L528.368 483.429L528.929 477.078L529.489 470.728L530.759 470.84M528.518 496.242L529.078 489.891M530.759 470.84L539.837 471.624M530.759 470.84L530.199 477.19L534.756 477.601M539.276 478.012L538.156 490.713L537.595 497.064L538.865 497.176L539.986 484.475L541.107 471.774L539.837 471.662L539.276 478.012ZM539.986 484.475L528.368 483.466M538.156 490.713L533.598 490.302L534.719 477.601L539.276 478.012M530.199 477.228L529.078 489.929L533.635 490.34" stroke="white" stroke-width="0.261495"/>
<path d="M574.914 473.417L573.084 494.3L595.46 496.28L597.291 475.397L599.121 454.515L576.745 452.535L574.914 473.417ZM574.914 473.417L586.084 474.389L597.254 475.36" stroke="white" stroke-width="0.448276"/>
<path d="M581.752 474.426C581.752 476.902 583.759 478.909 586.234 478.909C588.71 478.909 590.717 476.902 590.717 474.426C590.717 471.95 588.71 469.943 586.234 469.943C583.759 469.943 581.752 471.95 581.752 474.426Z" stroke="white" stroke-width="0.448276"/>
<path d="M338.076 528.481C338.076 536.341 344.448 542.714 352.308 542.714C360.169 542.714 366.541 536.341 366.541 528.481C366.541 520.62 360.169 514.248 352.308 514.248C344.448 514.248 338.076 520.62 338.076 528.481Z" stroke="white" stroke-width="0.336207" stroke-miterlimit="10"/>
<path d="M415.179 590.232L415.179 466.732L289.401 466.731L289.401 590.232L415.179 590.232Z" stroke="white" stroke-width="0.336207" stroke-miterlimit="10"/>
<path d="M415.179 528.482L289.438 528.481" stroke="white" stroke-width="0.336207" stroke-miterlimit="10"/>
<path d="M496.504 455.785L495.122 471.4L511.857 472.857L513.239 457.242L514.622 441.627L497.886 440.17L496.504 455.785ZM496.504 455.785L504.872 456.532L513.239 457.279" stroke="white" stroke-width="0.336207"/>
<path d="M501.621 456.532C501.621 458.389 503.126 459.894 504.983 459.894C506.84 459.894 508.345 458.389 508.345 456.532C508.345 454.675 506.84 453.17 504.983 453.17C503.126 453.17 501.621 454.675 501.621 456.532Z" stroke="white" stroke-width="0.336207"/>
<path d="M493.701 475.621L478.086 474.239L476.629 490.975L492.244 492.357L507.859 493.739L509.316 477.004L493.701 475.621ZM493.701 475.621L492.954 483.989L492.207 492.357" stroke="white" stroke-width="0.336207"/>
<path d="M489.592 484.139C489.592 485.996 491.098 487.502 492.954 487.502C494.811 487.502 496.316 485.996 496.316 484.139C496.316 482.283 494.811 480.777 492.954 480.777C491.098 480.777 489.592 482.283 489.592 484.139Z" stroke="white" stroke-width="0.336207"/>
<path d="M477.004 454.067L475.622 469.682L492.357 471.139L493.74 455.524L495.122 439.909L478.386 438.452L477.004 454.067ZM477.004 454.067L485.372 454.814L493.74 455.561" stroke="white" stroke-width="0.336207"/>
<path d="M482.121 454.815C482.121 456.672 483.627 458.177 485.483 458.177C487.34 458.177 488.846 456.672 488.846 454.815C488.846 452.958 487.34 451.453 485.483 451.453C483.627 451.453 482.121 452.958 482.121 454.815Z" stroke="white" stroke-width="0.336207"/>
<path d="M891.851 556.083L812.713 517.314L794.981 553.511L874.118 592.28L891.851 556.083Z" fill="#FFC1C5"/>
<path d="M801.742 551.156L800.398 550.521L803.685 543.797L806.972 537.073M801.742 551.156L811.343 555.863M801.742 551.156L805.03 544.432M805.03 544.432L811.604 530.984L816.423 533.337L821.242 535.69L824.53 528.966L825.875 529.601L819.3 543.05M805.03 544.432L809.849 546.785M824.53 528.929L814.929 524.222L813.584 523.587L810.297 530.311L807.01 537.035M814.929 524.222L811.642 530.946M814.63 549.176L811.343 555.9L812.688 556.535L819.263 543.087L806.972 537.035M821.205 535.69L814.63 549.139L809.811 546.785M809.849 546.823L816.423 533.374" stroke="white" stroke-width="0.336207"/>
<path d="M816.797 558.666L815.452 558.031L818.739 551.307L822.026 544.582M834.317 550.559L827.742 564.008L826.397 563.373L816.797 558.666M826.659 538.493L820.084 551.942L816.797 558.666M826.397 563.373L829.685 556.649M836.297 543.2L829.722 556.649L824.903 554.295L820.084 551.942M839.621 536.439L830.021 531.732L828.676 531.097L825.389 537.821L822.101 544.545M830.021 531.732L826.733 538.456M839.621 536.439L840.966 537.074L834.391 550.522M839.621 536.439L836.334 543.163M822.064 544.545L834.354 550.597M824.903 554.295L831.478 540.847M826.696 538.456L831.515 540.809M836.334 543.2L831.515 540.847" stroke="white" stroke-width="0.336207"/>
<path d="M831.74 566.061L830.395 565.426L833.682 558.702L836.97 551.978M831.74 566.061L841.34 570.768M841.602 545.889L835.027 559.337L831.74 566.061M835.027 559.337L839.846 561.691M854.527 543.834L844.927 539.127L843.582 538.492L840.295 545.216L837.007 551.941L849.297 557.992M844.927 539.127L841.639 545.851L846.458 548.205M851.24 550.596L844.665 564.044L841.378 570.768L842.723 571.403L849.297 557.955M844.665 564.044L839.846 561.691M849.335 557.918L855.909 544.469L854.565 543.834L851.277 550.558M839.846 561.691L846.421 548.242M851.24 550.558L846.421 548.205" stroke="white" stroke-width="0.336207"/>
<path d="M846.682 573.458L845.337 572.823L848.624 566.099L851.911 559.374M864.202 565.351L857.627 578.8L856.282 578.165L846.682 573.458M856.544 553.285L849.969 566.734L846.682 573.458M856.282 578.165L859.57 571.44M866.182 557.992L859.607 571.44L854.788 569.087L849.969 566.734M869.469 551.231L859.868 546.524L858.524 545.889L855.236 552.613L851.949 559.337M859.868 546.524L856.581 553.248L861.4 555.601M864.276 565.314L870.851 551.866L869.506 551.231L866.219 557.955M851.911 559.337L864.202 565.389M854.788 569.087L861.363 555.639M866.182 557.955L861.363 555.601" stroke="white" stroke-width="0.336207"/>
<path d="M861.625 580.854L860.28 580.219L863.568 573.495L866.855 566.771M879.145 572.748L872.571 586.196L871.226 585.561L861.625 580.854M871.487 560.682L864.912 574.13L861.625 580.854M881.088 565.389L874.513 578.837L871.226 585.561M864.912 574.13L869.731 576.484M884.413 558.627L874.812 553.92L873.467 553.285L870.18 560.009L866.892 566.734M874.812 553.92L871.525 560.644L876.344 562.998M884.413 558.627L885.757 559.262L879.183 572.711M884.413 558.627L881.125 565.351L876.306 562.998L869.731 576.446M874.513 578.837L869.694 576.484M866.855 566.734L879.145 572.785" stroke="white" stroke-width="0.336207"/>
<path d="M408.678 762.368L544.543 812.351L568.414 744.624L544.506 735.098L434.716 693.558L423.882 691.092L364.598 676.449L320.368 669.612L252.678 661.618L232.431 765.506L328.213 787.285L396.874 761.733L408.678 762.368Z" fill="#FFE0E5"/>
<path d="M891.187 667.323L843.577 649.806L834.109 675.539L881.719 693.056L891.187 667.323Z" fill="#FFC1C5"/>
<path d="M880.089 749.121L819.086 728.828L797.79 792.845L858.794 813.138L880.089 749.121Z" fill="#FFC1C5"/>
<path d="M801.406 722.98L740.402 702.687L730.545 732.32L791.548 752.613L801.406 722.98Z" fill="#FFC1C5"/>
<path d="M787.303 765.397L726.3 745.104L719.095 766.761L780.099 787.055L787.303 765.397Z" fill="#FFC1C5"/>
<path d="M699.042 736.084L619.11 709.494L611.906 731.152L691.838 757.742L699.042 736.084Z" fill="#FFC1C5"/>
<path d="M624.897 693.484L635.058 667.372L713.693 693.484L704.877 720.045L624.897 693.484Z" fill="#FFC1C5"/>
<path d="M602.257 607.005L538.169 585.686L529.88 610.605L593.967 631.924L602.257 607.005Z" fill="#FFC1C5"/>
<path d="M588.627 649.876L523.228 628.121L514.938 653.04L580.337 674.795L588.627 649.876Z" fill="#FFC1C5"/>
<path d="M511.653 608.095L476.773 596.492L458.131 652.533L493.011 664.136L511.653 608.095Z" fill="#FFC1C5"/>
<path d="M531.991 562.326L482.95 557.949L480.699 583.177L529.74 587.553L531.991 562.326Z" fill="#FFC1C5"/>
<path d="M512.583 676.163L487.061 667.673L480.776 686.566L506.298 695.056L512.583 676.163Z" fill="#FFC1C5"/>
<path d="M845.151 432.852L784.837 400.512L773.91 420.891L834.224 453.231L845.151 432.852Z" fill="#FFC1C5"/>
<path d="M973.897 763.685L942.456 753.226L925.782 803.347L957.224 813.806L973.897 763.685Z" fill="#FFC1C5"/>
<path d="M1005.94 839.03L924.235 811.851L916.123 836.238L997.827 863.417L1005.94 839.03Z" fill="#FFC1C5"/>
<path d="M905.954 688.802L838.326 663.92L828.858 689.653L896.487 714.535L905.954 688.802Z" fill="#FFC1C5"/>
<path d="M735.019 601.942L683.149 580.351L671.464 608.424L723.333 630.015L735.019 601.942Z" fill="#FFC1C5"/>
<path d="M763.234 595.614L689.568 564.95L677.883 593.023L751.549 623.687L763.234 595.614Z" fill="#FFC1C5"/>
<path d="M839.26 640.562L813.562 631.107L795.362 680.574L821.06 690.029L839.26 640.562Z" fill="#FFC1C5"/>
<path d="M809.419 610.302L787.682 602.305L764.658 664.885L786.394 672.882L809.419 610.302Z" fill="#FFC1C5"/>
<path d="M789.603 664.139L746.341 648.222L740.91 662.981L784.173 678.899L789.603 664.139Z" fill="#FFC1C5"/>
<path d="M614.978 319.158L521.126 292.601L513.172 320.71L607.024 347.267L614.978 319.158Z" fill="#FFC1C5"/>
<path d="M1169.48 249.131C1169.48 246.179 1170 243.34 1170.82 240.688L833.01 123.202L694.904 278.978L692.662 281.967L768.309 353.056L973.769 461.427L996.93 515.295L1173.63 265.044C1171.01 260.524 1169.48 255.294 1169.48 249.691L1169.48 249.131Z" fill="#FFE0E5"/>
<path d="M1199.96 280.285L1199.96 280.247C1195.96 280.247 1192.15 279.463 1188.68 278.081C1187.67 277.67 1186.7 277.222 1185.77 276.736L1014.34 517.834L1106.53 512.193L1239.19 587.653L1359.44 371.808L1215.43 276.064C1213.48 277.222 1211.43 278.155 1209.26 278.828C1206.35 279.762 1203.21 280.285 1199.96 280.285Z" fill="#FFE0E5"/>
<path d="M1182.48 774.174L1279.12 622.582L1105 525.455L1014.94 530.797L1005.56 603.978L1149.83 811.157L1182.48 774.174Z" fill="#FFE0E5"/>
<path d="M1174.59 678.614L1128.45 652.826L1118.66 670.337L1164.8 696.125L1174.59 678.614Z" fill="#FFC1C5"/>
<path d="M1249.93 625.161L1185.97 588.234L1168.06 619.26L1232.02 656.186L1249.93 625.161Z" fill="#FFC1C5"/>
<path d="M1329.37 385.506L1267.36 345.391L1247.9 375.47L1309.91 415.585L1329.37 385.506Z" fill="#FFC1C5"/>
<path d="M1289.26 359.628L1252.59 335.908L1239.95 355.449L1276.62 379.169L1289.26 359.628Z" fill="#FFC1C5"/>
<path d="M1294.3 439.86L1202.46 380.448L1195.08 391.865L1286.91 451.277L1294.3 439.86Z" fill="#FFC1C5"/>
<path d="M1270.8 476.118L1214.47 439.675L1207.08 451.092L1263.42 487.534L1270.8 476.118Z" fill="#FFC1C5"/>
<path d="M1136.38 661.316L1113.46 613.686L1095.38 622.385L1118.3 670.015L1136.38 661.316Z" fill="#FFC1C5"/>
<path d="M1146.06 838.389L1089.27 883.216L1139.14 955.987L1154.98 1129.96L1264.59 1178.71L1301.79 1040.37L1146.06 838.389Z" fill="#FFE0E5"/>
<path d="M1294.96 631.585L1194.99 783.476L1159.47 826.062L1314.31 1015.72L1483.23 754.674L1294.96 631.585Z" fill="#FFE0E5"/>
<path d="M1117.89 959.162L1049.71 868.909L991.848 893.266L946.684 955.613L973.768 1063.87L1076.35 1156.44L1135.33 1129.4L1117.89 959.162Z" fill="#FFE0E5"/>
<path d="M729.158 798.455L703.42 872.234L932.489 951.019L844.067 838.837L729.158 798.455Z" fill="#FFE0E5"/>
<path d="M76.3186 603.343C69.1835 589.035 64.6633 573.084 63.5053 556.124C58.7984 487.276 110.761 427.655 179.609 422.911C204.824 421.193 228.77 427.058 249.241 438.564L249.652 438.788L249.577 441.328L241.957 596.693L229.144 607.975L76.5427 603.417L76.356 603.417L76.356 603.305C76.3186 603.305 76.3186 603.305 76.3186 603.305L76.3186 603.343Z" fill="#FFC1C5"/>
<path d="M275.017 385.443L315.699 388.581L273.5 430.5L275.017 385.443Z" fill="#FFE0E5"/>
<path d="M213.828 587.243C213.828 592.401 218.009 596.583 223.167 596.583C228.325 596.583 232.506 592.401 232.506 587.243C232.506 582.086 228.325 577.904 223.167 577.904C218.009 577.904 213.828 582.086 213.828 587.243Z" stroke="white" stroke-width="0.336207" stroke-miterlimit="10"/>
<path d="M244.011 555.34L197.689 560.794L190.928 606.742" stroke="white" stroke-width="0.336207" stroke-miterlimit="10"/>
<path d="M149.35 605.622C148.042 600.056 147.37 594.266 147.37 588.289C147.37 546.039 181.588 511.82 223.838 511.82C266.089 511.82 238.968 512.941 245.953 515.07" stroke="white" stroke-width="0.336207" stroke-miterlimit="10"/>
<path d="M344 793.5L399.338 773.017L539.388 823.933L506.364 924.721L564.043 942.801L548.988 1003.58L454.29 979.485L410.583 904.548L428.215 867.005L344 793.5Z" fill="#FFE0E5"/>
<path d="M243.228 659.527L223.616 765.058L88.2736 756.691L46.6212 653.139L243.228 659.527Z" fill="#FFE0E5"/>
<path d="M1225.66 976.021L1213.53 958.887L1182.74 980.689L1194.87 997.824L1225.66 976.021Z" fill="#FFC1C5"/>
<path d="M1201.04 972.91L1190.88 980.12L1198.62 990.991L1208.78 983.781L1218.94 976.571L1211.2 965.7L1201.04 972.91ZM1201.04 972.91L1204.93 978.364L1208.81 983.818" stroke="white" stroke-width="0.261495"/>
<path d="M1202.28 978.402C1202.28 979.887 1203.48 981.091 1204.97 981.091C1206.45 981.091 1207.66 979.887 1207.66 978.402C1207.66 976.916 1206.45 975.712 1204.97 975.712C1203.48 975.712 1202.28 976.916 1202.28 978.402Z" stroke="white" stroke-width="0.261495"/>
<path d="M387.982 365.085L387.982 316.634L316.258 316.634L316.258 365.085L387.982 365.085Z" fill="#FFC1C5"/>
<path d="M151.538 673.492L89.5809 670.896L88.4264 698.44L150.384 701.037L151.538 673.492Z" fill="#FFC1C5"/>
<path d="M1040.76 970.038L977.83 967.4L976.569 997.483L1039.5 1000.12L1040.76 970.038Z" fill="#FFC1C5"/>
<path d="M1087.33 948.438L1056.2 947.134L1053.28 1016.85L1084.41 1018.16L1087.33 948.438Z" fill="#FFC1C5"/>
<path d="M337.06 720.557L260.106 704.2L253.846 733.652L330.8 750.009L337.06 720.557Z" fill="#FFC1C5"/>
<path d="M431.523 724.529L354.57 708.172L348.31 737.623L425.263 753.98L431.523 724.529Z" fill="#FFC1C5"/>
<path d="M129.992 417.26L118.792 406.06L43.0338 481.818L54.2337 493.018L129.992 417.26Z" fill="#FFC1C5"/>
<path d="M91.9707 437.183L80.7708 425.983L44.0012 462.753L55.2011 473.953L91.9707 437.183Z" fill="#FFC1C5"/>
<path d="M416.785 343.344L416.785 316.634L368.52 316.634L368.52 343.344L416.785 343.344Z" fill="#FFC1C5"/>
<path d="M434.417 296.684L434.417 269.975L338.411 269.975L338.411 296.684L434.417 296.684Z" fill="#FFC1C5"/>
<path d="M786.006 828.354L732.127 810.431L724.014 834.818L777.893 852.741L786.006 828.354Z" fill="#FFC1C5"/>
<path d="M843.79 861.065L789.912 843.142L781.799 867.529L835.678 885.452L843.79 861.065Z" fill="#FFC1C5"/>
<path d="M898.691 915.557L844.813 897.634L838.716 915.96L892.595 933.883L898.691 915.557Z" fill="#FFC1C5"/>
<path d="M627.534 898.709L557.244 875.326L546.667 907.122L616.957 930.504L627.534 898.709Z" fill="#FFC1C5"/>
<path d="M513.359 826.717L411.911 792.97L401.334 824.765L502.782 858.513L513.359 826.717Z" fill="#FFC1C5"/>
<path d="M542.846 964.296L472.555 940.913L465.445 962.287L535.736 985.67L542.846 964.296Z" fill="#FFC1C5"/>
<path d="M488.897 911.401L432.927 892.782L425.817 914.157L481.787 932.775L488.897 911.401Z" fill="#FFC1C5"/>
<path d="M466.102 863.952L444.728 856.842L426.109 912.812L447.483 919.922L466.102 863.952Z" fill="#FFC1C5"/>
<path d="M705.576 801.578L681.189 793.466L667.758 833.84L692.145 841.952L705.576 801.578Z" fill="#FFC1C5"/>
<path d="M637.301 869.448L623.087 864.72L602.77 925.794L616.984 930.523L637.301 869.448Z" fill="#FFC1C5"/>
<path d="M613.986 771.121L589.598 763.009L577.913 798.136L602.3 806.249L613.986 771.121Z" fill="#FFC1C5"/>
<path d="M638.75 779.294L589.585 762.94L581.473 787.327L630.637 803.682L638.75 779.294Z" fill="#FFC1C5"/>
<path d="M537.95 754.72L449.972 725.453L441.859 749.84L529.838 779.107L537.95 754.72Z" fill="#FFC1C5"/>
<path d="M913.738 334.564L913.738 295.751L816.835 295.751L816.835 334.564L913.738 334.564Z" fill="#FFC1C5"/>
<path d="M979.559 402.403L1012.32 365.869C1012.88 365.869 1013.48 365.906 1014.08 365.906C1031.52 365.906 1045.64 351.785 1045.64 334.34C1045.64 316.895 1045.49 330.866 1045.23 329.185L1078.07 292.613L1049.19 266.688L1016.73 302.886C1015.87 302.811 1015.01 302.774 1014.11 302.774C996.668 302.774 982.547 316.895 982.547 334.34C982.547 351.785 982.734 338.374 983.108 340.317L950.682 376.441L979.559 402.366L979.559 402.403Z" fill="#FFC1C5"/>
<rect x="1219" y="1043" width="24" height="24" rx="12" transform="rotate(90 1219 1043)" fill="#FEC202"/>
<path d="M1202.98 1059.16C1202.28 1059.16 1201.66 1058.99 1201.14 1058.63C1200.62 1058.27 1200.22 1057.76 1199.94 1057.1C1199.66 1056.43 1199.52 1055.65 1199.52 1054.76C1199.52 1053.86 1199.66 1053.08 1199.94 1052.42C1200.22 1051.76 1200.62 1051.25 1201.14 1050.89C1201.66 1050.53 1202.28 1050.35 1202.98 1050.35C1203.69 1050.35 1204.3 1050.53 1204.82 1050.89C1205.35 1051.25 1205.75 1051.76 1206.03 1052.42C1206.31 1053.08 1206.45 1053.86 1206.45 1054.76C1206.45 1055.65 1206.31 1056.43 1206.03 1057.1C1205.75 1057.76 1205.35 1058.27 1204.82 1058.63C1204.3 1058.99 1203.69 1059.16 1202.98 1059.16ZM1202.98 1057.56C1203.35 1057.56 1203.66 1057.45 1203.93 1057.22C1204.19 1057 1204.4 1056.68 1204.54 1056.26C1204.68 1055.84 1204.75 1055.34 1204.75 1054.76C1204.75 1054.18 1204.68 1053.68 1204.54 1053.26C1204.4 1052.84 1204.19 1052.52 1203.93 1052.3C1203.66 1052.07 1203.35 1051.96 1202.98 1051.96C1202.62 1051.96 1202.31 1052.07 1202.04 1052.3C1201.78 1052.52 1201.57 1052.84 1201.43 1053.26C1201.29 1053.68 1201.21 1054.18 1201.21 1054.76C1201.21 1055.34 1201.29 1055.84 1201.43 1056.26C1201.57 1056.68 1201.78 1057 1202.04 1057.22C1202.31 1057.45 1202.62 1057.56 1202.98 1057.56ZM1207.46 1057.49C1208.43 1056.89 1209.22 1056.35 1209.83 1055.85C1210.45 1055.36 1210.9 1054.89 1211.19 1054.46C1211.49 1054.02 1211.64 1053.6 1211.64 1053.19C1211.64 1052.8 1211.52 1052.48 1211.28 1052.25C1211.05 1052.02 1210.74 1051.9 1210.35 1051.9C1210.03 1051.9 1209.75 1051.99 1209.53 1052.17C1209.31 1052.36 1209.14 1052.66 1209.03 1053.09L1207.39 1052.7C1207.59 1051.91 1207.95 1051.33 1208.46 1050.94C1208.98 1050.55 1209.61 1050.35 1210.35 1050.35C1210.95 1050.35 1211.47 1050.47 1211.92 1050.72C1212.37 1050.96 1212.72 1051.3 1212.96 1051.72C1213.21 1052.14 1213.33 1052.62 1213.34 1053.14C1213.33 1053.86 1213.06 1054.58 1212.53 1055.29C1211.99 1055.99 1211.19 1056.71 1210.12 1057.42V1057.46H1213.46V1059H1207.46V1057.49Z" fill="white"/>
<rect x="575" y="464" width="24" height="24" rx="12" transform="rotate(90 575 464)" fill="#01AFEE"/>
<path d="M559.984 480.164C559.277 480.164 558.662 479.986 558.139 479.631C557.619 479.272 557.219 478.76 556.938 478.096C556.656 477.432 556.516 476.652 556.516 475.758C556.516 474.863 556.656 474.084 556.938 473.42C557.219 472.756 557.619 472.246 558.139 471.891C558.662 471.531 559.277 471.352 559.984 471.352C560.691 471.352 561.305 471.531 561.824 471.891C562.348 472.246 562.75 472.756 563.031 473.42C563.313 474.084 563.453 474.863 563.453 475.758C563.453 476.652 563.313 477.432 563.031 478.096C562.75 478.76 562.348 479.272 561.824 479.631C561.305 479.986 560.691 480.164 559.984 480.164ZM559.984 478.559C560.348 478.559 560.662 478.447 560.928 478.225C561.193 477.998 561.397 477.676 561.537 477.258C561.682 476.836 561.754 476.336 561.754 475.758C561.754 475.18 561.682 474.682 561.537 474.264C561.397 473.842 561.193 473.52 560.928 473.297C560.662 473.07 560.348 472.957 559.984 472.957C559.621 472.957 559.307 473.07 559.041 473.297C558.775 473.52 558.57 473.842 558.426 474.264C558.285 474.682 558.215 475.18 558.215 475.758C558.215 476.336 558.285 476.836 558.426 477.258C558.57 477.676 558.775 477.998 559.041 478.225C559.307 478.447 559.621 478.559 559.984 478.559ZM564.373 473.063C565.076 472.637 565.76 472.121 566.424 471.516H568.123V480H566.424V473.473H566.383C565.629 474.082 564.959 474.535 564.373 474.832V473.063Z" fill="white"/>
<rect x="914" y="566" width="24" height="24" rx="12" transform="rotate(90 914 566)" fill="#01AFEE"/>
<path d="M897.984 582.164C897.277 582.164 896.662 581.986 896.139 581.631C895.619 581.272 895.219 580.76 894.938 580.096C894.656 579.432 894.516 578.652 894.516 577.758C894.516 576.863 894.656 576.084 894.938 575.42C895.219 574.756 895.619 574.246 896.139 573.891C896.662 573.531 897.277 573.352 897.984 573.352C898.691 573.352 899.305 573.531 899.824 573.891C900.348 574.246 900.75 574.756 901.031 575.42C901.313 576.084 901.453 576.863 901.453 577.758C901.453 578.652 901.313 579.432 901.031 580.096C900.75 580.76 900.348 581.272 899.824 581.631C899.305 581.986 898.691 582.164 897.984 582.164ZM897.984 580.559C898.348 580.559 898.662 580.447 898.928 580.225C899.193 579.998 899.397 579.676 899.537 579.258C899.682 578.836 899.754 578.336 899.754 577.758C899.754 577.18 899.682 576.682 899.537 576.264C899.397 575.842 899.193 575.52 898.928 575.297C898.662 575.07 898.348 574.957 897.984 574.957C897.621 574.957 897.307 575.07 897.041 575.297C896.775 575.52 896.57 575.842 896.426 576.264C896.285 576.682 896.215 577.18 896.215 577.758C896.215 578.336 896.285 578.836 896.426 579.258C896.57 579.676 896.775 579.998 897.041 580.225C897.307 580.447 897.621 580.559 897.984 580.559ZM902.455 580.488C903.428 579.895 904.221 579.35 904.834 578.854C905.448 578.357 905.901 577.893 906.194 577.459C906.487 577.022 906.635 576.598 906.639 576.188C906.635 575.797 906.516 575.484 906.282 575.25C906.051 575.016 905.741 574.898 905.35 574.898C905.026 574.898 904.752 574.99 904.53 575.174C904.307 575.357 904.139 575.664 904.026 576.094L902.385 575.695C902.592 574.914 902.951 574.328 903.463 573.938C903.979 573.547 904.608 573.352 905.35 573.352C905.948 573.352 906.471 573.475 906.92 573.721C907.373 573.963 907.721 574.297 907.963 574.723C908.209 575.145 908.334 575.617 908.338 576.141C908.334 576.863 908.065 577.578 907.53 578.285C906.994 578.992 906.19 579.705 905.116 580.424V580.465H908.455V582H902.455V580.488Z" fill="white"/>
<rect x="906" y="592" width="24" height="24" rx="12" transform="rotate(90 906 592)" fill="#01AFEE"/>
<path d="M889.984 608.164C889.277 608.164 888.662 607.986 888.139 607.631C887.619 607.272 887.219 606.76 886.938 606.096C886.656 605.432 886.516 604.652 886.516 603.758C886.516 602.863 886.656 602.084 886.938 601.42C887.219 600.756 887.619 600.246 888.139 599.891C888.662 599.531 889.277 599.352 889.984 599.352C890.691 599.352 891.305 599.531 891.824 599.891C892.348 600.246 892.75 600.756 893.031 601.42C893.313 602.084 893.453 602.863 893.453 603.758C893.453 604.652 893.313 605.432 893.031 606.096C892.75 606.76 892.348 607.272 891.824 607.631C891.305 607.986 890.691 608.164 889.984 608.164ZM889.984 606.559C890.348 606.559 890.662 606.447 890.928 606.225C891.193 605.998 891.397 605.676 891.537 605.258C891.682 604.836 891.754 604.336 891.754 603.758C891.754 603.18 891.682 602.682 891.537 602.264C891.397 601.842 891.193 601.52 890.928 601.297C890.662 601.07 890.348 600.957 889.984 600.957C889.621 600.957 889.307 601.07 889.041 601.297C888.775 601.52 888.57 601.842 888.426 602.264C888.285 602.682 888.215 603.18 888.215 603.758C888.215 604.336 888.285 604.836 888.426 605.258C888.57 605.676 888.775 605.998 889.041 606.225C889.307 606.447 889.621 606.559 889.984 606.559ZM897.549 608.164C896.725 608.164 896.028 607.977 895.457 607.602C894.891 607.223 894.479 606.68 894.221 605.973L895.826 605.469C895.975 605.867 896.192 606.168 896.477 606.371C896.762 606.574 897.108 606.676 897.514 606.676C897.819 606.676 898.09 606.623 898.328 606.518C898.567 606.408 898.752 606.26 898.885 606.072C899.018 605.881 899.084 605.668 899.084 605.434C899.084 605.18 899.004 604.959 898.844 604.772C898.688 604.584 898.463 604.441 898.17 604.344C897.877 604.242 897.53 604.191 897.127 604.191H896.846V602.914H897.127C897.655 602.918 898.067 602.83 898.364 602.65C898.664 602.467 898.815 602.211 898.815 601.883C898.815 601.684 898.758 601.506 898.645 601.35C898.535 601.19 898.381 601.065 898.182 600.975C897.983 600.885 897.756 600.84 897.502 600.84C897.147 600.84 896.844 600.93 896.594 601.109C896.348 601.285 896.166 601.543 896.049 601.883L894.432 601.391C894.67 600.731 895.057 600.227 895.592 599.879C896.131 599.527 896.78 599.352 897.537 599.352C898.112 599.352 898.627 599.451 899.084 599.65C899.541 599.846 899.899 600.119 900.157 600.471C900.418 600.818 900.549 601.215 900.549 601.66C900.545 602.109 900.407 602.494 900.133 602.815C899.86 603.131 899.467 603.371 898.955 603.535V603.57C899.557 603.746 900.02 604.016 900.344 604.379C900.668 604.742 900.83 605.176 900.83 605.68C900.83 606.156 900.69 606.584 900.408 606.963C900.127 607.338 899.737 607.633 899.237 607.848C898.737 608.059 898.174 608.164 897.549 608.164Z" fill="white"/>
<rect x="933" y="587" width="24" height="24" rx="12" transform="rotate(90 933 587)" fill="#01AFEE"/>
<path d="M916.984 603.164C916.277 603.164 915.662 602.986 915.139 602.631C914.619 602.272 914.219 601.76 913.938 601.096C913.656 600.432 913.516 599.652 913.516 598.758C913.516 597.863 913.656 597.084 913.938 596.42C914.219 595.756 914.619 595.246 915.139 594.891C915.662 594.531 916.277 594.352 916.984 594.352C917.691 594.352 918.305 594.531 918.824 594.891C919.348 595.246 919.75 595.756 920.031 596.42C920.313 597.084 920.453 597.863 920.453 598.758C920.453 599.652 920.313 600.432 920.031 601.096C919.75 601.76 919.348 602.272 918.824 602.631C918.305 602.986 917.691 603.164 916.984 603.164ZM916.984 601.559C917.348 601.559 917.662 601.447 917.928 601.225C918.193 600.998 918.397 600.676 918.537 600.258C918.682 599.836 918.754 599.336 918.754 598.758C918.754 598.18 918.682 597.682 918.537 597.264C918.397 596.842 918.193 596.52 917.928 596.297C917.662 596.07 917.348 595.957 916.984 595.957C916.621 595.957 916.307 596.07 916.041 596.297C915.775 596.52 915.57 596.842 915.426 597.264C915.285 597.682 915.215 598.18 915.215 598.758C915.215 599.336 915.285 599.836 915.426 600.258C915.57 600.676 915.775 600.998 916.041 601.225C916.307 601.447 916.621 601.559 916.984 601.559ZM921.291 599.742L924.28 594.516H926.166L923.225 599.678V599.742H925.381V597.609H927.033V599.742H928.276V601.301H927.033V603H925.381V601.301H921.291V599.742Z" fill="white"/>
<rect x="364" y="647" width="24" height="24" rx="12" transform="rotate(90 364 647)" fill="#74D35E"/>
<path d="M348.984 663.164C348.277 663.164 347.662 662.986 347.139 662.631C346.619 662.272 346.219 661.76 345.938 661.096C345.656 660.432 345.516 659.652 345.516 658.758C345.516 657.863 345.656 657.084 345.938 656.42C346.219 655.756 346.619 655.246 347.139 654.891C347.662 654.531 348.277 654.352 348.984 654.352C349.691 654.352 350.305 654.531 350.824 654.891C351.348 655.246 351.75 655.756 352.031 656.42C352.313 657.084 352.453 657.863 352.453 658.758C352.453 659.652 352.313 660.432 352.031 661.096C351.75 661.76 351.348 662.272 350.824 662.631C350.305 662.986 349.691 663.164 348.984 663.164ZM348.984 661.559C349.348 661.559 349.662 661.447 349.928 661.225C350.193 660.998 350.397 660.676 350.537 660.258C350.682 659.836 350.754 659.336 350.754 658.758C350.754 658.18 350.682 657.682 350.537 657.264C350.397 656.842 350.193 656.52 349.928 656.297C349.662 656.07 349.348 655.957 348.984 655.957C348.621 655.957 348.307 656.07 348.041 656.297C347.775 656.52 347.57 656.842 347.426 657.264C347.285 657.682 347.215 658.18 347.215 658.758C347.215 659.336 347.285 659.836 347.426 660.258C347.57 660.676 347.775 660.998 348.041 661.225C348.307 661.447 348.621 661.559 348.984 661.559ZM353.373 656.063C354.076 655.637 354.76 655.121 355.424 654.516H357.123V663H355.424V656.473H355.383C354.629 657.082 353.959 657.535 353.373 657.832V656.063Z" fill="white"/>
<rect x="1003" y="663" width="24" height="24" rx="12" transform="rotate(90 1003 663)" fill="#74D35E"/>
<path d="M986.984 679.164C986.277 679.164 985.662 678.986 985.139 678.631C984.619 678.272 984.219 677.76 983.938 677.096C983.656 676.432 983.516 675.652 983.516 674.758C983.516 673.863 983.656 673.084 983.938 672.42C984.219 671.756 984.619 671.246 985.139 670.891C985.662 670.531 986.277 670.352 986.984 670.352C987.691 670.352 988.305 670.531 988.824 670.891C989.348 671.246 989.75 671.756 990.031 672.42C990.313 673.084 990.453 673.863 990.453 674.758C990.453 675.652 990.313 676.432 990.031 677.096C989.75 677.76 989.348 678.272 988.824 678.631C988.305 678.986 987.691 679.164 986.984 679.164ZM986.984 677.559C987.348 677.559 987.662 677.447 987.928 677.225C988.193 676.998 988.397 676.676 988.537 676.258C988.682 675.836 988.754 675.336 988.754 674.758C988.754 674.18 988.682 673.682 988.537 673.264C988.397 672.842 988.193 672.52 987.928 672.297C987.662 672.07 987.348 671.957 986.984 671.957C986.621 671.957 986.307 672.07 986.041 672.297C985.775 672.52 985.57 672.842 985.426 673.264C985.285 673.682 985.215 674.18 985.215 674.758C985.215 675.336 985.285 675.836 985.426 676.258C985.57 676.676 985.775 676.998 986.041 677.225C986.307 677.447 986.621 677.559 986.984 677.559ZM991.455 677.488C992.428 676.895 993.221 676.35 993.834 675.854C994.448 675.357 994.901 674.893 995.194 674.459C995.487 674.022 995.635 673.598 995.639 673.188C995.635 672.797 995.516 672.484 995.282 672.25C995.051 672.016 994.741 671.898 994.35 671.898C994.026 671.898 993.752 671.99 993.53 672.174C993.307 672.357 993.139 672.664 993.026 673.094L991.385 672.695C991.592 671.914 991.951 671.328 992.463 670.938C992.979 670.547 993.608 670.352 994.35 670.352C994.948 670.352 995.471 670.475 995.92 670.721C996.373 670.963 996.721 671.297 996.963 671.723C997.209 672.145 997.334 672.617 997.338 673.141C997.334 673.863 997.065 674.578 996.53 675.285C995.994 675.992 995.19 676.705 994.116 677.424V677.465H997.455V679H991.455V677.488Z" fill="white"/>
<rect opacity="0.51" x="745.113" y="462.444" width="19.7941" height="167" transform="rotate(-61.1761 745.113 462.444)" fill="#FF3D3D"/>
<rect opacity="0.51" x="625.274" y="431.613" width="18.6792" height="74.3839" transform="rotate(-84.3654 625.274 431.613)" fill="#FEC202"/>
<rect opacity="0.51" x="714.428" y="554.009" width="22.2039" height="163.76" transform="rotate(-64.3097 714.428 554.009)" fill="#FF3D3D"/>
<rect opacity="0.51" x="997.53" y="725.127" width="47.3734" height="269.519" transform="rotate(-34.6084 997.53 725.127)" fill="#FF3D3D"/>
<rect opacity="0.51" x="428.265" y="432.23" width="11.4837" height="153.421" transform="rotate(-0.0171338 428.265 432.23)" fill="#FF3D3D"/>
<rect x="844" y="471" width="24" height="24" rx="12" transform="rotate(90 844 471)" fill="#FF3D3D"/>
<path d="M828.984 487.164C828.277 487.164 827.662 486.986 827.139 486.631C826.619 486.272 826.219 485.76 825.938 485.096C825.656 484.432 825.516 483.652 825.516 482.758C825.516 481.863 825.656 481.084 825.938 480.42C826.219 479.756 826.619 479.246 827.139 478.891C827.662 478.531 828.277 478.352 828.984 478.352C829.691 478.352 830.305 478.531 830.824 478.891C831.348 479.246 831.75 479.756 832.031 480.42C832.313 481.084 832.453 481.863 832.453 482.758C832.453 483.652 832.313 484.432 832.031 485.096C831.75 485.76 831.348 486.272 830.824 486.631C830.305 486.986 829.691 487.164 828.984 487.164ZM828.984 485.559C829.348 485.559 829.662 485.447 829.928 485.225C830.193 484.998 830.397 484.676 830.537 484.258C830.682 483.836 830.754 483.336 830.754 482.758C830.754 482.18 830.682 481.682 830.537 481.264C830.397 480.842 830.193 480.52 829.928 480.297C829.662 480.07 829.348 479.957 828.984 479.957C828.621 479.957 828.307 480.07 828.041 480.297C827.775 480.52 827.57 480.842 827.426 481.264C827.285 481.682 827.215 482.18 827.215 482.758C827.215 483.336 827.285 483.836 827.426 484.258C827.57 484.676 827.775 484.998 828.041 485.225C828.307 485.447 828.621 485.559 828.984 485.559ZM833.373 480.063C834.076 479.637 834.76 479.121 835.424 478.516H837.123V487H835.424V480.473H835.383C834.629 481.082 833.959 481.535 833.373 481.832V480.063Z" fill="white"/>
<rect x="813" y="561" width="24" height="24" rx="12" transform="rotate(90 813 561)" fill="#FF3D3D"/>
<path d="M796.984 577.164C796.277 577.164 795.662 576.986 795.139 576.631C794.619 576.272 794.219 575.76 793.938 575.096C793.656 574.432 793.516 573.652 793.516 572.758C793.516 571.863 793.656 571.084 793.938 570.42C794.219 569.756 794.619 569.246 795.139 568.891C795.662 568.531 796.277 568.352 796.984 568.352C797.691 568.352 798.305 568.531 798.824 568.891C799.348 569.246 799.75 569.756 800.031 570.42C800.313 571.084 800.453 571.863 800.453 572.758C800.453 573.652 800.313 574.432 800.031 575.096C799.75 575.76 799.348 576.272 798.824 576.631C798.305 576.986 797.691 577.164 796.984 577.164ZM796.984 575.559C797.348 575.559 797.662 575.447 797.928 575.225C798.193 574.998 798.397 574.676 798.537 574.258C798.682 573.836 798.754 573.336 798.754 572.758C798.754 572.18 798.682 571.682 798.537 571.264C798.397 570.842 798.193 570.52 797.928 570.297C797.662 570.07 797.348 569.957 796.984 569.957C796.621 569.957 796.307 570.07 796.041 570.297C795.775 570.52 795.57 570.842 795.426 571.264C795.285 571.682 795.215 572.18 795.215 572.758C795.215 573.336 795.285 573.836 795.426 574.258C795.57 574.676 795.775 574.998 796.041 575.225C796.307 575.447 796.621 575.559 796.984 575.559ZM801.455 575.488C802.428 574.895 803.221 574.35 803.834 573.854C804.448 573.357 804.901 572.893 805.194 572.459C805.487 572.022 805.635 571.598 805.639 571.188C805.635 570.797 805.516 570.484 805.282 570.25C805.051 570.016 804.741 569.898 804.35 569.898C804.026 569.898 803.752 569.99 803.53 570.174C803.307 570.357 803.139 570.664 803.026 571.094L801.385 570.695C801.592 569.914 801.951 569.328 802.463 568.938C802.979 568.547 803.608 568.352 804.35 568.352C804.948 568.352 805.471 568.475 805.92 568.721C806.373 568.963 806.721 569.297 806.963 569.723C807.209 570.145 807.334 570.617 807.338 571.141C807.334 571.863 807.065 572.578 806.53 573.285C805.994 573.992 805.19 574.705 804.116 575.424V575.465H807.455V577H801.455V575.488Z" fill="white"/>
<rect x="673" y="406" width="24" height="24" rx="12" transform="rotate(90 673 406)" fill="#FEC202"/>
<path d="M657.984 422.164C657.277 422.164 656.662 421.986 656.139 421.631C655.619 421.272 655.219 420.76 654.938 420.096C654.656 419.432 654.516 418.652 654.516 417.758C654.516 416.863 654.656 416.084 654.938 415.42C655.219 414.756 655.619 414.246 656.139 413.891C656.662 413.531 657.277 413.352 657.984 413.352C658.691 413.352 659.305 413.531 659.824 413.891C660.348 414.246 660.75 414.756 661.031 415.42C661.313 416.084 661.453 416.863 661.453 417.758C661.453 418.652 661.313 419.432 661.031 420.096C660.75 420.76 660.348 421.272 659.824 421.631C659.305 421.986 658.691 422.164 657.984 422.164ZM657.984 420.559C658.348 420.559 658.662 420.447 658.928 420.225C659.193 419.998 659.397 419.676 659.537 419.258C659.682 418.836 659.754 418.336 659.754 417.758C659.754 417.18 659.682 416.682 659.537 416.264C659.397 415.842 659.193 415.52 658.928 415.297C658.662 415.07 658.348 414.957 657.984 414.957C657.621 414.957 657.307 415.07 657.041 415.297C656.775 415.52 656.57 415.842 656.426 416.264C656.285 416.682 656.215 417.18 656.215 417.758C656.215 418.336 656.285 418.836 656.426 419.258C656.57 419.676 656.775 419.998 657.041 420.225C657.307 420.447 657.621 420.559 657.984 420.559ZM662.373 415.063C663.076 414.637 663.76 414.121 664.424 413.516H666.123V422H664.424V415.473H664.383C663.629 416.082 662.959 416.535 662.373 416.832V415.063Z" fill="white"/>
<rect x="446" y="474" width="24" height="24" rx="12" transform="rotate(90 446 474)" fill="#FF3D3D"/>
<path d="M429.984 490.164C429.277 490.164 428.662 489.986 428.139 489.631C427.619 489.272 427.219 488.76 426.938 488.096C426.656 487.432 426.516 486.652 426.516 485.758C426.516 484.863 426.656 484.084 426.938 483.42C427.219 482.756 427.619 482.246 428.139 481.891C428.662 481.531 429.277 481.352 429.984 481.352C430.691 481.352 431.305 481.531 431.824 481.891C432.348 482.246 432.75 482.756 433.031 483.42C433.313 484.084 433.453 484.863 433.453 485.758C433.453 486.652 433.313 487.432 433.031 488.096C432.75 488.76 432.348 489.272 431.824 489.631C431.305 489.986 430.691 490.164 429.984 490.164ZM429.984 488.559C430.348 488.559 430.662 488.447 430.928 488.225C431.193 487.998 431.397 487.676 431.537 487.258C431.682 486.836 431.754 486.336 431.754 485.758C431.754 485.18 431.682 484.682 431.537 484.264C431.397 483.842 431.193 483.52 430.928 483.297C430.662 483.07 430.348 482.957 429.984 482.957C429.621 482.957 429.307 483.07 429.041 483.297C428.775 483.52 428.57 483.842 428.426 484.264C428.285 484.682 428.215 485.18 428.215 485.758C428.215 486.336 428.285 486.836 428.426 487.258C428.57 487.676 428.775 487.998 429.041 488.225C429.307 488.447 429.621 488.559 429.984 488.559ZM437.549 490.164C436.725 490.164 436.028 489.977 435.457 489.602C434.891 489.223 434.479 488.68 434.221 487.973L435.826 487.469C435.975 487.867 436.192 488.168 436.477 488.371C436.762 488.574 437.108 488.676 437.514 488.676C437.819 488.676 438.09 488.623 438.328 488.518C438.567 488.408 438.752 488.26 438.885 488.072C439.018 487.881 439.084 487.668 439.084 487.434C439.084 487.18 439.004 486.959 438.844 486.772C438.688 486.584 438.463 486.441 438.17 486.344C437.877 486.242 437.53 486.191 437.127 486.191H436.846V484.914H437.127C437.655 484.918 438.067 484.83 438.364 484.65C438.664 484.467 438.815 484.211 438.815 483.883C438.815 483.684 438.758 483.506 438.645 483.35C438.535 483.19 438.381 483.065 438.182 482.975C437.983 482.885 437.756 482.84 437.502 482.84C437.147 482.84 436.844 482.93 436.594 483.109C436.348 483.285 436.166 483.543 436.049 483.883L434.432 483.391C434.67 482.731 435.057 482.227 435.592 481.879C436.131 481.527 436.78 481.352 437.537 481.352C438.112 481.352 438.627 481.451 439.084 481.65C439.541 481.846 439.899 482.119 440.157 482.471C440.418 482.818 440.549 483.215 440.549 483.66C440.545 484.109 440.407 484.494 440.133 484.815C439.86 485.131 439.467 485.371 438.955 485.535V485.57C439.557 485.746 440.02 486.016 440.344 486.379C440.668 486.742 440.83 487.176 440.83 487.68C440.83 488.156 440.69 488.584 440.408 488.963C440.127 489.338 439.737 489.633 439.237 489.848C438.737 490.059 438.174 490.164 437.549 490.164Z" fill="white"/>
<rect x="1095" y="794" width="24" height="24" rx="12" transform="rotate(90 1095 794)" fill="#FF3D3D"/>
<path d="M1078.98 810.164C1078.28 810.164 1077.66 809.986 1077.14 809.631C1076.62 809.272 1076.22 808.76 1075.94 808.096C1075.66 807.432 1075.52 806.652 1075.52 805.758C1075.52 804.863 1075.66 804.084 1075.94 803.42C1076.22 802.756 1076.62 802.246 1077.14 801.891C1077.66 801.531 1078.28 801.352 1078.98 801.352C1079.69 801.352 1080.3 801.531 1080.82 801.891C1081.35 802.246 1081.75 802.756 1082.03 803.42C1082.31 804.084 1082.45 804.863 1082.45 805.758C1082.45 806.652 1082.31 807.432 1082.03 808.096C1081.75 808.76 1081.35 809.272 1080.82 809.631C1080.3 809.986 1079.69 810.164 1078.98 810.164ZM1078.98 808.559C1079.35 808.559 1079.66 808.447 1079.93 808.225C1080.19 807.998 1080.4 807.676 1080.54 807.258C1080.68 806.836 1080.75 806.336 1080.75 805.758C1080.75 805.18 1080.68 804.682 1080.54 804.264C1080.4 803.842 1080.19 803.52 1079.93 803.297C1079.66 803.07 1079.35 802.957 1078.98 802.957C1078.62 802.957 1078.31 803.07 1078.04 803.297C1077.78 803.52 1077.57 803.842 1077.43 804.264C1077.29 804.682 1077.21 805.18 1077.21 805.758C1077.21 806.336 1077.29 806.836 1077.43 807.258C1077.57 807.676 1077.78 807.998 1078.04 808.225C1078.31 808.447 1078.62 808.559 1078.98 808.559ZM1083.46 808.488C1084.43 807.895 1085.22 807.35 1085.83 806.854C1086.45 806.357 1086.9 805.893 1087.19 805.459C1087.49 805.022 1087.64 804.598 1087.64 804.188C1087.64 803.797 1087.52 803.484 1087.28 803.25C1087.05 803.016 1086.74 802.898 1086.35 802.898C1086.03 802.898 1085.75 802.99 1085.53 803.174C1085.31 803.357 1085.14 803.664 1085.03 804.094L1083.39 803.695C1083.59 802.914 1083.95 802.328 1084.46 801.938C1084.98 801.547 1085.61 801.352 1086.35 801.352C1086.95 801.352 1087.47 801.475 1087.92 801.721C1088.37 801.963 1088.72 802.297 1088.96 802.723C1089.21 803.145 1089.33 803.617 1089.34 804.141C1089.33 804.863 1089.06 805.578 1088.53 806.285C1087.99 806.992 1087.19 807.705 1086.12 808.424V808.465H1089.46V810H1083.46V808.488Z" fill="white"/>
<g clip-path="url(#clip1_1828_2073)">
<path d="M955.183 550.111V550.002C955.183 549.93 955.148 549.857 955.077 549.857H952.922C952.85 549.857 952.815 549.93 952.815 550.002V550.111C952.815 550.183 952.85 550.256 952.922 550.256H955.077C955.148 550.256 955.183 550.183 955.183 550.111ZM952.817 549.241V549.386C952.817 549.459 952.852 549.531 952.924 549.531H955.079C955.15 549.531 955.185 549.459 955.185 549.386V549.241C955.185 549.205 955.15 549.133 955.079 549.133H952.924C952.852 549.133 952.817 549.205 952.817 549.241ZM952.746 552.176V552.321C952.746 552.393 952.817 552.429 952.886 552.429H955.112C955.183 552.429 955.254 552.393 955.254 552.321V552.176C955.254 552.103 955.183 552.031 955.112 552.031H952.886C952.815 552.031 952.746 552.103 952.746 552.176ZM953.17 550.98H954.832C954.903 550.98 954.974 550.908 954.974 550.835V550.727C954.974 550.654 954.903 550.582 954.832 550.582H953.17C953.099 550.582 953.03 550.654 953.03 550.727V550.835C953.03 550.908 953.101 550.98 953.17 550.98ZM954.725 548.048L955.043 547.794L955.432 547.939L955.29 547.541L955.539 547.215H955.15L954.903 546.852L954.796 547.251L954.373 547.396L954.727 547.613V548.048H954.725ZM952.924 551.451V551.596C952.924 551.632 952.959 551.705 953.03 551.705H954.974C955.045 551.705 955.079 551.632 955.079 551.596V551.451C955.079 551.379 955.043 551.306 954.974 551.306H953.03C952.959 551.306 952.924 551.379 952.924 551.451ZM952.357 553.876H955.642C955.713 553.876 955.748 553.84 955.748 553.768V553.623C955.748 553.55 955.713 553.478 955.642 553.478H952.357C952.285 553.478 952.25 553.55 952.25 553.623V553.768C952.25 553.84 952.285 553.876 952.357 553.876ZM957.303 550.799L957.692 550.944L957.552 550.545L957.799 550.219H957.374L957.163 549.893L957.02 550.292L956.631 550.401L956.985 550.654L956.949 551.053L957.303 550.799ZM956.667 548.988L957.056 549.096L956.949 548.698L957.163 548.374H956.773L956.526 548.048L956.42 548.446L956.031 548.553L956.349 548.807V549.241L956.667 548.988ZM962 548.012V547.975C961.964 547.903 961.929 547.83 961.858 547.794L961.787 547.758C961.328 547.577 961.257 547.432 961.151 547.215C961.08 547.034 960.937 546.78 960.621 546.454C959.914 545.729 959.067 545.874 958.713 545.983C958.219 545.693 957.759 545.693 957.405 545.802C957.405 545.44 957.265 545.005 956.841 544.608C956.841 544.246 956.7 543.34 955.815 542.869C955.426 542.652 955.144 542.616 954.932 542.58C954.685 542.58 954.543 542.543 954.261 542.145L954.19 542.073C954.154 542.036 954.083 542.036 954.049 542.036L954.018 542H953.982H953.947V542.036H953.911H953.876H953.84L953.804 542.073L953.769 542.145H953.733C953.415 542.543 953.311 542.58 953.062 542.58C952.85 542.616 952.568 542.652 952.179 542.869C951.296 543.34 951.154 544.246 951.154 544.608C950.729 545.005 950.589 545.44 950.589 545.838C950.235 545.693 949.777 545.693 949.281 545.983C948.927 545.874 948.08 545.729 947.373 546.454C947.055 546.78 946.95 547.034 946.844 547.215C946.737 547.468 946.666 547.577 946.207 547.758C946.101 547.794 946.067 547.867 946.032 547.939L946 548.012V548.048C946 548.12 946.036 548.191 946.071 548.227C946.318 548.662 946.318 548.807 946.247 549.062C946.247 549.278 946.176 549.567 946.247 550.002C946.425 551.016 947.201 551.415 947.555 551.524C947.766 552.067 948.155 552.321 948.509 552.465C948.262 552.753 948.155 553.224 948.262 553.768C948.05 554.094 947.626 554.891 948.086 555.796C948.297 556.195 948.475 556.412 948.615 556.555C948.827 556.738 948.898 556.811 948.933 557.352C948.933 557.39 948.969 557.424 948.969 557.461V557.497L949.004 557.533C949.076 557.606 949.216 557.678 949.323 557.642C949.816 557.497 949.923 557.569 950.17 557.678C950.348 557.787 950.595 557.895 951.017 557.968C952.043 558.149 952.643 557.497 952.854 557.207C953.419 557.135 953.773 556.847 954.02 556.521C954.231 556.847 954.585 557.135 955.15 557.171C955.397 557.497 955.997 558.113 956.987 557.968C957.409 557.895 957.658 557.75 957.834 557.678C958.081 557.533 958.188 557.497 958.682 557.606L958.751 557.642C958.786 557.642 958.822 557.642 958.857 557.606H958.893L958.928 557.569H958.964V557.533H959V557.497H959.035V557.461L959.071 557.424V557.39V557.316C959.106 556.811 959.213 556.702 959.389 556.521C959.531 556.376 959.742 556.195 959.918 555.796C960.378 554.854 959.954 554.057 959.742 553.768C959.883 553.188 959.742 552.753 959.531 552.429C959.884 552.321 960.238 552.031 960.485 551.524C960.803 551.415 961.615 551.016 961.757 549.966C961.828 549.531 961.793 549.278 961.757 549.062C961.686 548.807 961.686 548.662 961.968 548.227L962.004 548.157V548.048V548.012H962ZM951.651 545.005C951.758 544.932 951.794 544.824 951.794 544.715C951.794 544.679 951.723 543.848 952.465 543.449C952.783 543.304 952.959 543.268 953.137 543.232C953.455 543.196 953.702 543.123 953.984 542.833C954.302 543.123 954.549 543.196 954.867 543.232C955.043 543.268 955.221 543.304 955.539 543.449C956.28 543.848 956.208 544.679 956.208 544.715C956.208 544.824 956.244 544.932 956.315 545.005C956.916 545.476 956.773 545.983 956.669 546.237C955.892 545.729 954.974 545.44 953.984 545.44C952.995 545.44 952.078 545.729 951.3 546.237C951.195 545.983 951.088 545.476 951.653 545.005H951.651ZM948.084 551.161C948.048 551.053 947.942 550.98 947.837 550.944C947.802 550.944 947.025 550.763 946.883 549.893C946.812 549.567 946.847 549.35 946.883 549.169C946.954 548.879 946.954 548.625 946.776 548.227C947.13 548.012 947.27 547.794 947.412 547.504C947.484 547.323 947.588 547.178 947.802 546.925C948.402 546.309 949.178 546.635 949.214 546.635C949.321 546.671 949.425 546.671 949.496 546.599C950.097 546.2 950.555 546.454 950.768 546.635C949.639 547.613 948.931 549.026 948.931 550.618C948.931 551.053 949.003 551.487 949.072 551.886C948.789 551.922 948.329 551.813 948.082 551.161H948.084ZM952.675 556.555C952.568 556.555 952.463 556.629 952.392 556.738C952.392 556.774 951.969 557.497 951.12 557.352C950.802 557.28 950.626 557.207 950.448 557.098C950.166 556.956 949.955 556.883 949.53 556.919C949.459 556.485 949.283 556.303 949.07 556.086C948.929 555.941 948.787 555.796 948.647 555.506C948.258 554.746 948.787 554.094 948.823 554.057C948.894 553.985 948.929 553.876 948.894 553.768C948.716 553.079 949.07 552.717 949.283 552.572C949.99 554.383 951.685 555.688 953.662 555.796C953.591 556.086 953.344 556.555 952.673 556.555H952.675ZM953.982 555.217C951.509 555.217 949.496 553.152 949.496 550.618C949.496 548.12 951.509 546.055 953.982 546.055C956.455 546.055 958.468 548.12 958.468 550.618C958.468 553.152 956.455 555.217 953.982 555.217ZM959.351 555.506C959.211 555.796 959.069 555.941 958.928 556.05C958.717 556.267 958.539 556.485 958.468 556.919C958.045 556.847 957.832 556.956 957.55 557.098C957.374 557.171 957.232 557.28 956.878 557.316C956.066 557.461 955.606 556.738 955.606 556.702C955.535 556.629 955.466 556.555 955.359 556.555C954.652 556.521 954.441 556.086 954.369 555.796C956.311 555.651 958.006 554.347 958.68 552.536C958.926 552.681 959.316 553.043 959.102 553.731C959.067 553.84 959.102 553.949 959.173 554.057C959.209 554.057 959.738 554.709 959.349 555.506H959.351ZM961.117 549.169C961.153 549.35 961.188 549.531 961.153 549.893C961.01 550.727 960.199 550.944 960.163 550.944C960.056 550.98 959.987 551.053 959.952 551.161C959.669 551.85 959.175 551.886 958.893 551.886C959 551.487 959.033 551.053 959.033 550.618C959.033 549.026 958.326 547.613 957.232 546.671C957.407 546.454 957.868 546.2 958.504 546.599C958.575 546.671 958.682 546.671 958.786 546.635C958.822 546.635 959.598 546.309 960.199 546.925C960.412 547.142 960.517 547.323 960.588 547.504C960.728 547.758 960.87 548.012 961.259 548.191C961.046 548.589 961.082 548.843 961.117 549.169ZM955.784 554.202H952.216C952.145 554.202 952.11 554.275 952.11 554.347V554.492C952.11 554.565 952.145 554.601 952.216 554.601H955.784C955.853 554.601 955.89 554.565 955.89 554.492V554.347C955.89 554.275 955.855 554.202 955.784 554.202ZM952.57 553.152H955.43C955.501 553.152 955.57 553.116 955.57 553.043V552.9C955.57 552.828 955.501 552.753 955.43 552.753H952.57C952.499 552.753 952.428 552.828 952.428 552.9V553.043C952.428 553.116 952.499 553.152 952.57 553.152ZM952.604 547.939L952.993 547.794L953.311 548.048V547.613L953.629 547.396L953.24 547.251L953.133 546.852L952.886 547.215H952.497L952.744 547.541L952.602 547.939H952.604ZM951.616 548.446L951.476 548.048L951.262 548.374H950.84L951.086 548.698L950.98 549.096L951.369 548.988L951.687 549.241V548.807L952.005 548.553L951.616 548.446ZM951.015 550.292L950.875 549.893L950.628 550.219H950.239L950.486 550.545L950.346 550.944L950.733 550.799L951.086 551.053L951.051 550.654L951.404 550.401L951.015 550.292Z" fill="white"/>
</g>
</g>
<defs>
<clipPath id="clip0_1828_2073">
<rect width="1178.71" height="1363.55" fill="white" transform="translate(1363.55 5.96025e-05) rotate(90)"/>
</clipPath>
<clipPath id="clip1_1828_2073">
<rect width="16" height="16" fill="white" transform="translate(946 542)"/>
</clipPath>
</defs>
</svg>
