<svg xmlns="http://www.w3.org/2000/svg" width="335" height="269" viewBox="0 0 335 269" fill="none">
  <rect width="335" height="269" fill="#DCE7F6"/>
  <path d="M-18 44L102 153L230 293" stroke="#F8F5EA" stroke-width="28"/>
  <path d="M52 -16L176 94L360 260" stroke="#F8F5EA" stroke-width="22"/>
  <path d="M-20 172L102 126L356 34" stroke="#F8F5EA" stroke-width="24"/>
  <path d="M-30 218L128 164L360 81" stroke="#FFFFFF" stroke-opacity=".72" stroke-width="10"/>
  <path d="M12 84L94 52L128 113L52 150L12 84Z" fill="#BFD9B0"/>
  <path d="M204 86L306 51L329 121L226 157L204 86Z" fill="#BFD9B0"/>
  <path d="M104 171L178 144L211 226L137 250L104 171Z" fill="#C7D9EC"/>
  <path d="M232 170L328 136L349 203L252 238L232 170Z" fill="#C7D9EC"/>
  <path d="M22 202H92V239H22V202Z" fill="#EEF1F5"/>
  <path d="M36 213H76" stroke="#C1CAD6" stroke-width="4" stroke-linecap="round"/>
  <path d="M36 226H68" stroke="#C1CAD6" stroke-width="4" stroke-linecap="round"/>
  <path d="M15 26H72V58H15V26Z" fill="#EEF1F5"/>
  <path d="M244 18H315V44H244V18Z" fill="#EEF1F5"/>
  <path d="M182 188C202 178 223 189 230 208C238 230 226 252 205 260C184 268 163 257 156 237C149 217 161 198 182 188Z" fill="#9DB7D7" opacity=".75"/>
  <path d="M179 200C193 193 210 201 216 216C221 232 213 247 198 252C183 258 168 250 163 235C158 221 165 207 179 200Z" fill="#DCE7F6"/>
  <path d="M0 0H335V269H0V0Z" fill="url(#paint0_linear)" opacity=".12"/>
  <defs>
    <linearGradient id="paint0_linear" x1="0" y1="0" x2="335" y2="269" gradientUnits="userSpaceOnUse">
      <stop stop-color="#FFFFFF"/>
      <stop offset="1" stop-color="#8CA8C9"/>
    </linearGradient>
  </defs>
</svg>
