<svg xmlns="http://www.w3.org/2000/svg" width="335" height="353" viewBox="0 0 335 353" fill="none">
  <rect width="335" height="353" fill="#DFF2FF"/>
  <rect x="18" y="42" width="299" height="280" rx="24" fill="#EEF1FF"/>
  <rect x="45" y="16" width="245" height="28" rx="14" fill="#FFFFFF" stroke="#6C78C8"/>
  <text x="168" y="36" text-anchor="middle" font-family="Arial, sans-serif" font-size="18" font-weight="700" fill="#6C78C8">MENU</text>
  <rect x="38" y="64" width="62" height="26" rx="6" fill="#C9D9FF"/>
  <text x="69" y="82" text-anchor="middle" font-family="Arial, sans-serif" font-size="14" font-weight="700" fill="#6C78C8">MENU</text>
  <rect x="113" y="64" width="48" height="26" rx="6" fill="#D7E4FF"/>
  <text x="137" y="82" text-anchor="middle" font-family="Arial, sans-serif" font-size="12" font-weight="700" fill="#6C78C8">INFO</text>
  <rect x="174" y="64" width="56" height="26" rx="6" fill="#D7E4FF"/>
  <text x="202" y="82" text-anchor="middle" font-family="Arial, sans-serif" font-size="12" font-weight="700" fill="#6C78C8">MAIN</text>
  <rect x="243" y="64" width="50" height="26" rx="6" fill="#D7E4FF"/>
  <text x="268" y="82" text-anchor="middle" font-family="Arial, sans-serif" font-size="12" font-weight="700" fill="#6C78C8">SIDE</text>
  <rect x="48" y="104" width="239" height="46" rx="8" fill="#D8EAFF"/>
  <path d="M68 130H266" stroke="#A8BDF3" stroke-width="4" stroke-linecap="round"/>
  <path d="M68 118H248" stroke="#A8BDF3" stroke-width="4" stroke-linecap="round"/>
  <text x="70" y="191" font-family="Arial, sans-serif" font-size="18" font-weight="700" fill="#6C78C8">MAIN</text>
  <text x="214" y="191" font-family="Arial, sans-serif" font-size="18" font-weight="700" fill="#6C78C8">SIDE</text>
  <rect x="58" y="204" width="62" height="60" rx="6" fill="#F8C34E"/>
  <rect x="134" y="204" width="62" height="60" rx="6" fill="#E47755"/>
  <rect x="214" y="204" width="62" height="60" rx="6" fill="#F2BA5D"/>
  <rect x="58" y="278" width="62" height="38" rx="6" fill="#63A873"/>
  <rect x="134" y="278" width="62" height="38" rx="6" fill="#D7503D"/>
  <rect x="214" y="278" width="62" height="38" rx="6" fill="#E95E55"/>
  <path d="M70 248H108M146 248H184M226 248H264M70 303H108M146 303H184M226 303H264" stroke="#FFFFFF" stroke-opacity=".75" stroke-width="5" stroke-linecap="round"/>
</svg>
