<svg width="48" height="48" viewBox="0 0 48 48" fill="none" xmlns="http://www.w3.org/2000/svg">
<rect x="48" width="48" height="48" rx="24" transform="rotate(90 48 0)" fill="white" fill-opacity="0.2"/>
<path d="M31.4697 23.4697C31.7626 23.1768 32.2374 23.1768 32.5303 23.4697C32.8232 23.7626 32.8232 24.2374 32.5303 24.5303L24.5308 32.5298C24.3951 32.6658 24.2074 32.75 24 32.75C23.7925 32.75 23.6046 32.6657 23.4688 32.5295L15.4697 24.5303C15.1768 24.2374 15.1768 23.7626 15.4697 23.4697C15.7626 23.1768 16.2374 23.1768 16.5303 23.4697L23.25 30.1893V16C23.25 15.5858 23.5858 15.25 24 15.25C24.4142 15.25 24.75 15.5858 24.75 16V30.1893L31.4697 23.4697Z" fill="white"/>
</svg>
