<svg width="23" height="24" viewBox="0 0 23 24" fill="none" xmlns="http://www.w3.org/2000/svg">
<path d="M18.1407 1.35718H12.0038V11.4528H16.2279V8.03096H17.2685V11.4528H21.4925V4.77355C21.4925 2.88687 19.9921 1.35718 18.1416 1.35718H18.1407Z" fill="white" style="fill:white;fill-opacity:1;"/>
<path d="M6.63138 12.5708V15.9926H5.59075V12.5708H1.36673V19.25C1.36673 21.1367 2.8671 22.6664 4.71761 22.6664H10.8545V12.5708H6.63049H6.63138Z" fill="white" style="fill:white;fill-opacity:1;"/>
<path d="M17.7567 12.4119H12.0038V22.5075H18.1407C19.9913 22.5075 21.4916 20.9778 21.4916 19.0911V12.4119H17.7567ZM16.227 19.171V15.7492H17.2676V19.171H16.227Z" fill="white" style="fill:white;fill-opacity:1;"/>
<path d="M10.9641 5.90265V1.35718H6.74008V4.779H5.59075V1.35718H1.36673V11.4528H5.59075V8.03096H6.74008V11.4528H10.9641V6.90731H7.72547V5.90265H10.9641Z" fill="white" style="fill:white;fill-opacity:1;"/>
</svg>
