<svg width="274" height="257" viewBox="0 0 274 257" fill="none" xmlns="http://www.w3.org/2000/svg">
<g filter="url(#filter0_d_2151_1840)">
<mask id="path-1-outside-1_2151_1840" maskUnits="userSpaceOnUse" x="2.18848" y="79.9668" width="149" height="136" fill="black">
<rect fill="white" x="2.18848" y="79.9668" width="149" height="136"/>
<path fill-rule="evenodd" clip-rule="evenodd" d="M91.5938 92.5908C87.8611 99.7841 86.5682 104.647 86.8242 111.511C95.1814 108.228 104.291 107.628 113.044 110.393C135.67 117.539 147.342 144.453 139.113 170.507C130.885 196.561 105.872 211.89 83.2461 204.744C78.0838 203.114 73.4937 200.451 69.5781 197.008C65.069 198.859 60.2133 199.87 55.1523 199.87C31.4247 199.87 12.1887 177.72 12.1885 150.397C12.1885 123.075 31.4245 100.925 55.1523 100.925C63.3639 100.925 71.0354 103.58 77.5596 108.183C77.4017 102.369 78.9683 97.7441 82.7119 90.9668L91.5938 92.5908Z"/>
</mask>
<path fill-rule="evenodd" clip-rule="evenodd" d="M91.5938 92.5908C87.8611 99.7841 86.5682 104.647 86.8242 111.511C95.1814 108.228 104.291 107.628 113.044 110.393C135.67 117.539 147.342 144.453 139.113 170.507C130.885 196.561 105.872 211.89 83.2461 204.744C78.0838 203.114 73.4937 200.451 69.5781 197.008C65.069 198.859 60.2133 199.87 55.1523 199.87C31.4247 199.87 12.1887 177.72 12.1885 150.397C12.1885 123.075 31.4245 100.925 55.1523 100.925C63.3639 100.925 71.0354 103.58 77.5596 108.183C77.4017 102.369 78.9683 97.7441 82.7119 90.9668L91.5938 92.5908Z" fill="#FFFBE8"/>
<path d="M91.5938 92.5908L99.6643 96.7786L105.33 85.8594L93.2292 83.6467L91.5938 92.5908ZM86.8242 111.511L77.7382 111.85L78.2161 124.66L90.1481 119.974L86.8242 111.511ZM113.044 110.393L115.782 101.722L115.782 101.722L113.044 110.393ZM139.113 170.507L147.784 173.245V173.245L139.113 170.507ZM83.2461 204.744L80.5078 213.414L80.508 213.414L83.2461 204.744ZM69.5781 197.008L75.5826 190.18L71.3456 186.454L66.1258 188.596L69.5781 197.008ZM55.1523 199.87V208.962H55.1525L55.1523 199.87ZM12.1885 150.397H3.09611V150.398L12.1885 150.397ZM55.1523 100.925L55.1525 91.8324H55.1523V100.925ZM77.5596 108.183L72.3185 115.612L87.141 126.068L86.6486 107.936L77.5596 108.183ZM82.7119 90.9668L84.3473 82.0227L77.9148 80.8465L74.753 86.5705L82.7119 90.9668ZM91.5938 92.5908L83.5232 88.403C79.2424 96.6527 77.4107 103.073 77.7382 111.85L86.8242 111.511L95.9103 111.172C95.7256 106.222 96.4798 102.916 99.6643 96.7786L91.5938 92.5908ZM86.8242 111.511L90.1481 119.974C96.744 117.383 103.711 116.98 110.306 119.063L113.044 110.393L115.782 101.722C104.871 98.2765 93.6187 99.0737 83.5003 103.048L86.8242 111.511ZM113.044 110.393L110.306 119.063C127.035 124.347 137.535 145.314 130.443 167.769L139.113 170.507L147.784 173.245C157.149 143.591 144.305 110.731 115.782 101.722L113.044 110.393ZM139.113 170.507L130.443 167.769C123.351 190.223 102.714 201.357 85.9842 196.074L83.2461 204.744L80.508 213.414C109.031 222.422 138.418 202.899 147.784 173.245L139.113 170.507ZM83.2461 204.744L85.9844 196.074C82.075 194.839 78.5879 192.823 75.5826 190.18L69.5781 197.008L63.5737 203.836C68.3995 208.08 74.0926 211.388 80.5078 213.414L83.2461 204.744ZM69.5781 197.008L66.1258 188.596C62.6714 190.014 58.9859 190.778 55.1522 190.778L55.1523 199.87L55.1525 208.962C61.4407 208.962 67.4666 207.703 73.0305 205.419L69.5781 197.008ZM55.1523 199.87V190.778C37.6082 190.778 21.281 173.945 21.2808 150.397L12.1885 150.397L3.09611 150.398C3.09638 181.495 25.2412 208.962 55.1523 208.962V199.87ZM12.1885 150.397H21.2808C21.2808 126.85 37.608 110.017 55.1523 110.017V100.925V91.8324C25.2411 91.8324 3.09611 119.299 3.09611 150.397H12.1885ZM55.1523 100.925L55.1522 110.017C61.3474 110.017 67.2096 112.009 72.3185 115.612L77.5596 108.183L82.8007 100.753C74.8612 95.1522 65.3805 91.8326 55.1525 91.8324L55.1523 100.925ZM77.5596 108.183L86.6486 107.936C86.5528 104.41 87.309 101.449 90.6708 95.3631L82.7119 90.9668L74.753 86.5705C70.6276 94.039 68.2505 100.328 68.4706 108.429L77.5596 108.183ZM82.7119 90.9668L81.0765 99.9109L89.9583 101.535L91.5938 92.5908L93.2292 83.6467L84.3473 82.0227L82.7119 90.9668Z" fill="#FFFBE8" mask="url(#path-1-outside-1_2151_1840)"/>
</g>
<path fill-rule="evenodd" clip-rule="evenodd" d="M55.1519 100.923C65.936 100.923 75.7914 105.499 83.3354 113.056C92.6041 108.463 103.056 107.237 113.043 110.391C135.67 117.537 147.341 144.451 139.113 170.505C130.884 196.56 105.872 211.888 83.2456 204.743C78.0829 203.112 73.4934 200.449 69.5776 197.005C65.0683 198.856 60.2131 199.868 55.1519 199.868C31.4242 199.868 12.1892 177.719 12.189 150.396C12.189 123.073 31.4241 100.923 55.1519 100.923Z" fill="#FF3D3D"/>
<path d="M82.7119 90.9649L91.5937 92.5891C87.0212 101.401 86.1094 106.716 87.2219 116.495L78.3401 114.871C76.5692 105.343 77.6571 100.116 82.7119 90.9649Z" fill="#650000"/>
<path d="M154.061 123.204C155.818 119.324 161.329 119.324 163.087 123.204L170.198 138.908C171.345 141.44 174.349 142.533 176.855 141.331L192.397 133.872C196.237 132.029 200.459 135.572 199.311 139.674L194.665 156.275C193.916 158.951 195.514 161.72 198.207 162.41L214.906 166.686C219.033 167.743 219.99 173.171 216.474 175.575L202.244 185.306C199.95 186.875 199.394 190.023 201.014 192.282L211.058 206.292C213.539 209.755 210.784 214.528 206.545 214.109L189.389 212.416C186.623 212.143 184.174 214.198 183.963 216.97L182.651 234.158C182.327 238.406 177.148 240.291 174.169 237.245L162.115 224.921C160.172 222.935 156.975 222.935 155.032 224.921L142.978 237.245C139.999 240.291 134.821 238.406 134.496 234.158L133.185 216.97C132.973 214.198 130.524 212.143 127.758 212.416L110.603 214.109C106.363 214.528 103.608 209.755 106.09 206.292L116.134 192.282C117.753 190.023 117.198 186.875 114.904 185.306L100.673 175.575C97.1571 173.171 98.1141 167.743 102.241 166.686L118.941 162.41C121.633 161.72 123.232 158.951 122.483 156.275L117.836 139.674C116.688 135.572 120.91 132.029 124.751 133.872L140.293 141.331C142.798 142.533 145.802 141.44 146.949 138.908L154.061 123.204Z" fill="#FCC42A"/>
<g filter="url(#filter1_d_2151_1840)">
<path d="M158.573 118.833L174.999 136.074L198.663 133.425L200.163 157.19L219.995 170.372L205.868 189.541L212.587 212.387L189.443 217.991L179.905 239.81L158.573 229.226L137.242 239.81L127.704 217.991L104.56 212.387L111.279 189.541L97.1516 170.372L116.983 157.19L118.483 133.425L142.148 136.074L158.573 118.833Z" fill="#FCC42A"/>
<path d="M161.937 115.629L176.771 131.201L198.146 128.809L202.991 128.267L203.299 133.132L204.653 154.598L222.566 166.504L226.626 169.202L223.733 173.127L210.974 190.44L217.042 211.076L218.418 215.754L213.68 216.9L192.774 221.962L184.16 241.67L182.208 246.138L177.841 243.971L158.573 234.41L139.306 243.971L134.938 246.138L132.986 241.67L124.371 221.962L103.467 216.9L98.7285 215.754L100.104 211.076L106.172 190.44L93.4131 173.127L90.5205 169.202L94.5811 166.504L112.492 154.598L113.848 133.132L114.155 128.267L119 128.809L140.374 131.201L155.211 115.629L158.573 112.1L161.937 115.629Z" stroke="#FFFBE8" stroke-width="9.28913"/>
</g>
<g filter="url(#filter2_d_2151_1840)">
<mask id="path-8-outside-2_2151_1840" maskUnits="userSpaceOnUse" x="131.755" y="0.950195" width="139" height="200" fill="black">
<rect fill="white" x="131.755" y="0.950195" width="139" height="200"/>
<path d="M201.361 10.9502C234.28 10.9506 260.965 37.6368 260.965 70.5557C260.965 91.5381 250.122 109.987 233.735 120.608L239.146 125.372L233.621 127.551C236.276 146.72 235.94 164.939 233.58 189.272L224.581 190.2C226.32 166.929 226.555 149.255 224.395 131.189L215.197 134.818V128.544C210.757 129.599 206.124 130.16 201.361 130.16C168.442 130.16 141.756 103.474 141.755 70.5557C141.755 37.6366 168.442 10.9502 201.361 10.9502Z"/>
</mask>
<path d="M201.361 10.9502L201.361 1.85783H201.361V10.9502ZM260.965 70.5557L270.058 70.5558V70.5557H260.965ZM233.735 120.608L228.79 112.978L218.721 119.504L227.727 127.433L233.735 120.608ZM239.146 125.372L242.481 133.831L256.317 128.375L245.154 118.547L239.146 125.372ZM233.621 127.551L230.285 119.092L223.633 121.715L224.614 128.798L233.621 127.551ZM233.58 189.272L234.512 198.317L241.911 197.554L242.629 190.15L233.58 189.272ZM224.581 190.2L215.513 189.523L214.704 200.359L225.513 199.245L224.581 190.2ZM224.395 131.189L233.423 130.11L232.024 118.405L221.058 122.732L224.395 131.189ZM215.197 134.818H206.104V148.18L218.534 143.276L215.197 134.818ZM215.197 128.544H224.289V117.037L213.094 119.698L215.197 128.544ZM201.361 130.16V139.253H201.361L201.361 130.16ZM141.755 70.5557H132.663V70.5558L141.755 70.5557ZM201.361 10.9502L201.361 20.0426C229.258 20.0429 251.873 42.6583 251.873 70.5557H260.965H270.058C270.058 32.6153 239.301 1.85826 201.361 1.85783L201.361 10.9502ZM260.965 70.5557L251.873 70.5556C251.873 88.3275 242.701 103.962 228.79 112.978L233.735 120.608L238.68 128.238C257.544 116.012 270.057 94.7487 270.058 70.5558L260.965 70.5557ZM233.735 120.608L227.727 127.433L233.138 132.197L239.146 125.372L245.154 118.547L239.743 113.784L233.735 120.608ZM239.146 125.372L235.811 116.914L230.285 119.092L233.621 127.551L236.956 136.009L242.481 133.831L239.146 125.372ZM233.621 127.551L224.614 128.798C227.135 146.992 226.854 164.43 224.53 188.395L233.58 189.272L242.629 190.15C245.026 165.448 245.418 146.449 242.627 126.303L233.621 127.551ZM233.58 189.272L232.647 180.228L223.648 181.156L224.581 190.2L225.513 199.245L234.512 198.317L233.58 189.272ZM224.581 190.2L233.648 190.878C235.407 167.331 235.682 149.003 233.423 130.11L224.395 131.189L215.367 132.269C217.428 149.508 217.232 166.527 215.513 189.523L224.581 190.2ZM224.395 131.189L221.058 122.732L211.86 126.36L215.197 134.818L218.534 143.276L227.732 139.647L224.395 131.189ZM215.197 134.818H224.289V128.544H215.197H206.104V134.818H215.197ZM215.197 128.544L213.094 119.698C209.335 120.592 205.408 121.068 201.361 121.068L201.361 130.16L201.361 139.253C206.84 139.252 212.178 138.607 217.3 137.39L215.197 128.544ZM201.361 130.16V121.068C173.463 121.068 150.848 98.4527 150.848 70.5556L141.755 70.5557L132.663 70.5558C132.663 108.496 163.421 139.253 201.361 139.253V130.16ZM141.755 70.5557H150.848C150.848 42.6582 173.463 20.0426 201.361 20.0426V10.9502V1.85783C163.42 1.85783 132.663 32.615 132.663 70.5557H141.755Z" fill="#FFFBE8" mask="url(#path-8-outside-2_2151_1840)"/>
</g>
<path d="M224.58 190.199C227.779 147.387 225.894 123.52 213.357 81.3028L222.357 80.3753C235.662 123.033 237.693 146.867 233.58 189.272L224.58 190.199Z" fill="#D9D9D9"/>
<path fill-rule="evenodd" clip-rule="evenodd" d="M201.36 11.1289C234.279 11.1292 260.965 37.8155 260.965 70.7344C260.965 91.7165 250.122 110.165 233.735 120.786L239.146 125.55L215.196 134.996V128.724C210.756 129.779 206.124 130.34 201.36 130.34C168.441 130.34 141.755 103.653 141.755 70.7344C141.755 37.8153 168.441 11.1289 201.36 11.1289Z" fill="#46E877"/>
<defs>
<filter id="filter0_d_2151_1840" x="-0.000184536" y="78.9889" width="153.906" height="140.972" filterUnits="userSpaceOnUse" color-interpolation-filters="sRGB">
<feFlood flood-opacity="0" result="BackgroundImageFix"/>
<feColorMatrix in="SourceAlpha" type="matrix" values="0 0 0 0 0 0 0 0 0 0 0 0 0 0 0 0 0 0 127 0" result="hardAlpha"/>
<feOffset dy="1.23855"/>
<feGaussianBlur stdDeviation="1.54819"/>
<feComposite in2="hardAlpha" operator="out"/>
<feColorMatrix type="matrix" values="0 0 0 0 0 0 0 0 0 0 0 0 0 0 0 0 0 0 0.25 0"/>
<feBlend mode="normal" in2="BackgroundImageFix" result="effect1_dropShadow_2151_1840"/>
<feBlend mode="normal" in="SourceGraphic" in2="effect1_dropShadow_2151_1840" result="shape"/>
</filter>
<filter id="filter1_d_2151_1840" x="80.7928" y="103.508" width="155.56" height="153.291" filterUnits="userSpaceOnUse" color-interpolation-filters="sRGB">
<feFlood flood-opacity="0" result="BackgroundImageFix"/>
<feColorMatrix in="SourceAlpha" type="matrix" values="0 0 0 0 0 0 0 0 0 0 0 0 0 0 0 0 0 0 127 0" result="hardAlpha"/>
<feOffset dy="1.23855"/>
<feGaussianBlur stdDeviation="1.54819"/>
<feComposite in2="hardAlpha" operator="out"/>
<feColorMatrix type="matrix" values="0 0 0 0 0 0 0 0 0 0 0 0 0 0 0 0 0 0 0.25 0"/>
<feBlend mode="normal" in2="BackgroundImageFix" result="effect1_dropShadow_2151_1840"/>
<feBlend mode="normal" in="SourceGraphic" in2="effect1_dropShadow_2151_1840" result="shape"/>
</filter>
<filter id="filter2_d_2151_1840" x="129.567" y="8.45194e-05" width="143.587" height="204.694" filterUnits="userSpaceOnUse" color-interpolation-filters="sRGB">
<feFlood flood-opacity="0" result="BackgroundImageFix"/>
<feColorMatrix in="SourceAlpha" type="matrix" values="0 0 0 0 0 0 0 0 0 0 0 0 0 0 0 0 0 0 127 0" result="hardAlpha"/>
<feOffset dy="1.23855"/>
<feGaussianBlur stdDeviation="1.54819"/>
<feComposite in2="hardAlpha" operator="out"/>
<feColorMatrix type="matrix" values="0 0 0 0 0 0 0 0 0 0 0 0 0 0 0 0 0 0 0.25 0"/>
<feBlend mode="normal" in2="BackgroundImageFix" result="effect1_dropShadow_2151_1840"/>
<feBlend mode="normal" in="SourceGraphic" in2="effect1_dropShadow_2151_1840" result="shape"/>
</filter>
</defs>
</svg>
