<svg width="253" height="361" viewBox="0 0 253 361" fill="none" xmlns="http://www.w3.org/2000/svg">
<g filter="url(#filter0_d_2099_4669)">
<mask id="path-1-outside-1_2099_4669" maskUnits="userSpaceOnUse" x="5.44922" y="3.26953" width="242" height="350" fill="black">
<rect fill="white" x="5.44922" y="3.26953" width="242" height="350"/>
<path d="M126.338 19.2695C184.266 19.2698 231.225 66.2303 231.226 124.158C231.226 161.081 212.146 193.547 183.309 212.237L192.829 220.619L183.105 224.454C187.779 258.187 187.189 290.247 183.035 333.067L167.198 334.699C170.258 293.748 170.672 262.648 166.872 230.857L150.687 237.242V226.204C142.873 228.062 134.72 229.047 126.338 229.047C68.4096 229.047 21.4492 182.086 21.4492 124.158C21.4494 66.2301 68.4097 19.2695 126.338 19.2695Z"/>
</mask>
<path d="M126.338 19.2695L126.338 3.26953H126.338V19.2695ZM231.226 124.158H247.226V124.158L231.226 124.158ZM183.309 212.237L174.606 198.811L156.889 210.295L172.736 224.246L183.309 212.237ZM192.829 220.619L198.699 235.503L223.043 225.902L203.402 208.61L192.829 220.619ZM183.105 224.454L177.235 209.57L165.53 214.186L167.257 226.65L183.105 224.454ZM183.035 333.067L184.675 348.983L197.697 347.641L198.96 334.612L183.035 333.067ZM167.198 334.699L151.243 333.507L149.818 352.575L168.838 350.615L167.198 334.699ZM166.872 230.857L182.759 228.958L180.297 208.362L161.001 215.974L166.872 230.857ZM150.687 237.242H134.687V260.754L156.558 252.126L150.687 237.242ZM150.687 226.204H166.687V205.955L146.986 210.638L150.687 226.204ZM126.338 229.047V245.047H126.338L126.338 229.047ZM21.4492 124.158L5.44922 124.158V124.158H21.4492ZM126.338 19.2695L126.338 35.2695C175.429 35.2698 215.225 75.0667 215.226 124.158L231.226 124.158L247.226 124.158C247.225 57.3939 193.103 3.26984 126.338 3.26953L126.338 19.2695ZM231.226 124.158H215.226C215.226 155.432 199.086 182.944 174.606 198.811L183.309 212.237L192.011 225.664C225.205 204.149 247.226 166.731 247.226 124.158H231.226ZM183.309 212.237L172.736 224.246L182.256 232.628L192.829 220.619L203.402 208.61L193.881 200.228L183.309 212.237ZM192.829 220.619L186.959 205.735L177.235 209.57L183.105 224.454L188.976 239.338L198.699 235.503L192.829 220.619ZM183.105 224.454L167.257 226.65C171.692 258.665 171.201 289.352 167.11 331.523L183.035 333.067L198.96 334.612C203.177 291.142 203.865 257.709 198.954 222.258L183.105 224.454ZM183.035 333.067L181.395 317.152L165.558 318.783L167.198 334.699L168.838 350.615L184.675 348.983L183.035 333.067ZM167.198 334.699L183.154 335.891C186.25 294.456 186.733 262.204 182.759 228.958L166.872 230.857L150.985 232.757C154.612 263.092 154.267 293.04 151.243 333.507L167.198 334.699ZM166.872 230.857L161.001 215.974L144.815 222.358L150.687 237.242L156.558 252.126L172.743 245.741L166.872 230.857ZM150.687 237.242H166.687V226.204H150.687H134.687V237.242H150.687ZM150.687 226.204L146.986 210.638C140.373 212.21 133.462 213.047 126.338 213.047L126.338 229.047L126.338 245.047C135.978 245.047 145.372 243.913 154.387 241.77L150.687 226.204ZM126.338 229.047V213.047C77.2462 213.047 37.4492 173.25 37.4492 124.158H21.4492H5.44922C5.44922 190.923 59.5731 245.047 126.338 245.047V229.047ZM21.4492 124.158L37.4492 124.158C37.4494 75.0666 77.2464 35.2695 126.338 35.2695V19.2695V3.26953C59.5731 3.26953 5.44948 57.3936 5.44922 124.158L21.4492 124.158Z" fill="#FFFBE8" mask="url(#path-1-outside-1_2099_4669)"/>
</g>
<path d="M167.198 334.7C172.828 259.362 169.51 217.364 147.449 143.073L163.286 141.441C186.699 216.507 190.273 258.448 183.035 333.068L167.198 334.7Z" fill="#D9D9D9"/>
<path d="M126.338 19.5889C184.266 19.5891 231.226 66.5494 231.226 124.478C231.225 161.401 212.146 193.866 183.309 212.557L192.829 220.938L150.687 237.562V226.522C142.872 228.38 134.72 229.365 126.338 229.365C68.4097 229.365 21.4494 182.406 21.4492 124.478C21.4492 66.5493 68.4096 19.5889 126.338 19.5889Z" fill="#46E877"/>
<defs>
<filter id="filter0_d_2099_4669" x="0.000468731" y="0.000281096" width="252.674" height="360.203" filterUnits="userSpaceOnUse" color-interpolation-filters="sRGB">
<feFlood flood-opacity="0" result="BackgroundImageFix"/>
<feColorMatrix in="SourceAlpha" type="matrix" values="0 0 0 0 0 0 0 0 0 0 0 0 0 0 0 0 0 0 127 0" result="hardAlpha"/>
<feOffset dy="2.1795"/>
<feGaussianBlur stdDeviation="2.72438"/>
<feComposite in2="hardAlpha" operator="out"/>
<feColorMatrix type="matrix" values="0 0 0 0 0 0 0 0 0 0 0 0 0 0 0 0 0 0 0.25 0"/>
<feBlend mode="normal" in2="BackgroundImageFix" result="effect1_dropShadow_2099_4669"/>
<feBlend mode="normal" in="SourceGraphic" in2="effect1_dropShadow_2099_4669" result="shape"/>
</filter>
</defs>
</svg>
