<svg width="274" height="270" viewBox="0 0 274 270" fill="none" xmlns="http://www.w3.org/2000/svg">
<path d="M128.93 34.66C132.023 27.8313 141.721 27.8314 144.813 34.66L157.328 62.2938C159.345 66.7487 164.632 68.6729 169.041 66.5571L196.391 53.4326C203.149 50.1894 210.578 56.4232 208.558 63.6421L200.382 92.855C199.064 97.5646 201.877 102.437 206.615 103.65L236.002 111.176C243.264 113.036 244.948 122.587 238.76 126.818L213.719 143.941C209.682 146.701 208.705 152.242 211.554 156.217L229.229 180.872C233.596 186.964 228.747 195.363 221.287 194.627L191.098 191.648C186.231 191.168 181.922 194.784 181.549 199.66L179.241 229.908C178.67 237.382 169.557 240.699 164.315 235.34L143.104 213.653C139.685 210.157 134.059 210.157 130.639 213.653L109.428 235.34C104.186 240.699 95.0732 237.382 94.5027 229.908L92.1942 199.66C91.822 194.784 87.5122 191.168 82.6453 191.648L52.4565 194.627C44.9965 195.363 40.1474 186.964 44.5149 180.872L62.1892 156.217C65.0385 152.242 64.0616 146.701 60.0246 143.941L34.9838 126.818C28.7959 122.587 30.48 113.036 37.7419 111.176L67.129 103.65C71.8666 102.437 74.6796 97.5646 73.3615 92.855L65.1856 63.6421C63.1653 56.4232 70.5945 50.1894 77.3528 53.4326L104.702 66.5571C109.111 68.673 114.398 66.7487 116.416 62.2938L128.93 34.66Z" fill="#FCC42A"/>
<g filter="url(#filter0_d_2099_4684)">
<path d="M136.872 26.9678L165.776 57.3073L207.42 52.6449L210.059 94.4653L244.957 117.662L220.098 151.395L231.92 191.596L191.194 201.458L174.41 239.853L136.872 221.229L99.3348 239.853L82.5508 201.458L41.8241 191.596L53.647 151.395L28.7875 117.662L63.6852 94.4653L66.3249 52.6449L107.968 57.3073L136.872 26.9678Z" fill="#FCC42A"/>
<path d="M142.79 21.3301L168.896 48.7334L206.51 44.5225L215.036 43.5684L215.576 52.1299L217.96 89.9033L249.481 110.855L256.626 115.604L251.536 122.511L229.082 152.979L239.762 189.29L242.182 197.521L233.844 199.54L197.058 208.446L181.898 243.127L178.462 250.987L170.777 247.175L136.872 230.353L102.968 247.175L95.2822 250.987L91.8457 243.127L76.6855 208.446L39.9004 199.54L31.5625 197.521L33.9834 189.29L44.6611 152.979L22.208 122.511L17.1182 115.604L24.2627 110.855L55.7832 89.9033L58.168 52.1299L58.709 43.5684L67.2344 44.5225L104.848 48.7334L130.955 21.3301L136.872 15.1191L142.79 21.3301Z" stroke="#FFFBE8" stroke-width="16.3462"/>
</g>
<defs>
<filter id="filter0_d_2099_4684" x="0.000468731" y="0.000281096" width="273.743" height="269.75" filterUnits="userSpaceOnUse" color-interpolation-filters="sRGB">
<feFlood flood-opacity="0" result="BackgroundImageFix"/>
<feColorMatrix in="SourceAlpha" type="matrix" values="0 0 0 0 0 0 0 0 0 0 0 0 0 0 0 0 0 0 127 0" result="hardAlpha"/>
<feOffset dy="2.1795"/>
<feGaussianBlur stdDeviation="2.72438"/>
<feComposite in2="hardAlpha" operator="out"/>
<feColorMatrix type="matrix" values="0 0 0 0 0 0 0 0 0 0 0 0 0 0 0 0 0 0 0.25 0"/>
<feBlend mode="normal" in2="BackgroundImageFix" result="effect1_dropShadow_2099_4684"/>
<feBlend mode="normal" in="SourceGraphic" in2="effect1_dropShadow_2099_4684" result="shape"/>
</filter>
</defs>
</svg>
