<svg width="271" height="249" viewBox="0 0 271 249" fill="none" xmlns="http://www.w3.org/2000/svg">
<g filter="url(#filter0_d_2099_4689)">
<mask id="path-1-outside-1_2099_4689" maskUnits="userSpaceOnUse" x="5.44922" y="3.0791" width="260" height="238" fill="black">
<rect fill="white" x="5.44922" y="3.0791" width="260" height="238"/>
<path d="M161.179 23.9375C154.611 36.5946 152.336 45.1513 152.786 57.2275C167.492 51.4523 183.524 50.3984 198.926 55.2627C238.741 67.8376 259.279 115.199 244.8 161.047C230.32 206.895 186.305 233.869 146.489 221.295C137.406 218.426 129.326 213.746 122.436 207.688C114.502 210.943 105.957 212.718 97.0518 212.718C55.2975 212.718 21.4492 173.741 21.4492 125.66C21.4493 77.5795 55.2975 38.6025 97.0518 38.6025C111.5 38.6027 125.001 43.2708 136.48 51.3672C136.204 41.1402 138.963 33.0025 145.549 21.0791L161.179 23.9375Z"/>
</mask>
<path d="M161.179 23.9375C154.611 36.5946 152.336 45.1513 152.786 57.2275C167.492 51.4523 183.524 50.3984 198.926 55.2627C238.741 67.8376 259.279 115.199 244.8 161.047C230.32 206.895 186.305 233.869 146.489 221.295C137.406 218.426 129.326 213.746 122.436 207.688C114.502 210.943 105.957 212.718 97.0518 212.718C55.2975 212.718 21.4492 173.741 21.4492 125.66C21.4493 77.5795 55.2975 38.6025 97.0518 38.6025C111.5 38.6027 125.001 43.2708 136.48 51.3672C136.204 41.1402 138.963 33.0025 145.549 21.0791L161.179 23.9375Z" fill="#FFFBE8"/>
<path d="M161.179 23.9375L175.381 31.3069L185.351 12.0927L164.057 8.19853L161.179 23.9375ZM152.786 57.2275L136.797 57.8234L137.637 80.3662L158.635 72.1203L152.786 57.2275ZM198.926 55.2627L203.744 40.0056L203.744 40.0055L198.926 55.2627ZM244.8 161.047L260.057 165.865L260.057 165.865L244.8 161.047ZM146.489 221.295L141.671 236.552L141.671 236.552L146.489 221.295ZM122.436 207.688L133.001 195.672L125.546 189.116L116.361 192.885L122.436 207.688ZM97.0518 212.718V228.718H97.0519L97.0518 212.718ZM21.4492 125.66L5.44922 125.66V125.66H21.4492ZM97.0518 38.6025L97.0519 22.6025H97.0518V38.6025ZM136.48 51.3672L127.259 64.4425L153.337 82.8343L152.475 50.9349L136.48 51.3672ZM145.549 21.0791L148.427 5.34013L137.107 3.26997L131.543 13.3429L145.549 21.0791ZM161.179 23.9375L146.977 16.5681C139.444 31.0842 136.222 42.3801 136.797 57.8234L152.786 57.2275L168.775 56.6316C168.45 47.9226 169.777 42.1049 175.381 31.3069L161.179 23.9375ZM152.786 57.2275L158.635 72.1203C170.24 67.5626 182.501 66.8545 194.107 70.5199L198.926 55.2627L203.744 40.0055C184.546 33.9423 164.744 35.3419 146.938 42.3348L152.786 57.2275ZM198.926 55.2627L194.107 70.5198C223.546 79.8176 242.022 116.714 229.543 156.228L244.8 161.047L260.057 165.865C276.537 113.683 253.936 55.8576 203.744 40.0056L198.926 55.2627ZM244.8 161.047L229.543 156.228C217.063 195.742 180.747 215.335 151.308 206.038L146.489 221.295L141.671 236.552C191.863 252.403 243.577 218.048 260.057 165.865L244.8 161.047ZM146.489 221.295L151.308 206.038C144.422 203.863 138.284 200.318 133.001 195.672L122.436 207.688L111.87 219.703C120.367 227.175 130.389 232.989 141.671 236.552L146.489 221.295ZM122.436 207.688L116.361 192.885C110.289 195.377 103.804 196.718 97.0516 196.718L97.0518 212.718L97.0519 228.718C108.109 228.718 118.714 226.51 128.51 222.49L122.436 207.688ZM97.0518 212.718V196.718C66.179 196.718 37.4492 167.098 37.4492 125.66H21.4492H5.44922C5.44923 180.383 44.4161 228.718 97.0518 228.718V212.718ZM21.4492 125.66L37.4492 125.66C37.4493 84.2221 66.179 54.6025 97.0518 54.6025V38.6025V22.6025C44.4161 22.6025 5.44927 70.937 5.44922 125.66L21.4492 125.66ZM97.0518 38.6025L97.0516 54.6025C107.955 54.6027 118.272 58.1043 127.259 64.4425L136.48 51.3672L145.702 38.2919C131.729 28.4373 115.045 22.6027 97.0519 22.6025L97.0518 38.6025ZM136.48 51.3672L152.475 50.9349C152.307 44.7345 153.639 39.5247 159.554 28.8153L145.549 21.0791L131.543 13.3429C124.287 26.4802 120.101 37.5458 120.486 51.7995L136.48 51.3672ZM145.549 21.0791L142.67 36.8181L158.3 39.6765L161.179 23.9375L164.057 8.19853L148.427 5.34013L145.549 21.0791Z" fill="#FFFBE8" mask="url(#path-1-outside-1_2099_4689)"/>
</g>
<path d="M97.0508 38.6016C116.027 38.6016 133.37 46.6529 146.646 59.9502C162.956 51.8671 181.35 49.7111 198.925 55.2617C238.74 67.8365 259.279 115.198 244.799 161.046C230.319 206.894 186.304 233.868 146.488 221.294C137.405 218.425 129.325 213.745 122.435 207.687C114.5 210.942 105.956 212.717 97.0508 212.717C55.2965 212.717 21.4482 173.74 21.4482 125.659C21.4483 77.5786 55.2966 38.6016 97.0508 38.6016Z" fill="#FF3D3D"/>
<path d="M145.548 21.0776L161.178 23.9358C153.131 39.4422 151.527 48.7947 153.485 66.0034L137.855 63.1451C134.739 46.3791 136.653 37.181 145.548 21.0776Z" fill="#650000"/>
<defs>
<filter id="filter0_d_2099_4689" x="0.000468731" y="0.000281096" width="270.83" height="248.071" filterUnits="userSpaceOnUse" color-interpolation-filters="sRGB">
<feFlood flood-opacity="0" result="BackgroundImageFix"/>
<feColorMatrix in="SourceAlpha" type="matrix" values="0 0 0 0 0 0 0 0 0 0 0 0 0 0 0 0 0 0 127 0" result="hardAlpha"/>
<feOffset dy="2.1795"/>
<feGaussianBlur stdDeviation="2.72438"/>
<feComposite in2="hardAlpha" operator="out"/>
<feColorMatrix type="matrix" values="0 0 0 0 0 0 0 0 0 0 0 0 0 0 0 0 0 0 0.25 0"/>
<feBlend mode="normal" in2="BackgroundImageFix" result="effect1_dropShadow_2099_4689"/>
<feBlend mode="normal" in="SourceGraphic" in2="effect1_dropShadow_2099_4689" result="shape"/>
</filter>
</defs>
</svg>
