<svg width="259" height="259" viewBox="0 0 259 259" fill="none" xmlns="http://www.w3.org/2000/svg">
<g filter="url(#filter0_d_2099_4640)">
<path d="M129.328 21.1484L202.782 53.6942L235.328 127.148L202.782 200.603L129.328 233.148L55.8739 200.603L23.3281 127.148L55.8739 53.6942L129.328 21.1484Z" fill="#AB9AFF"/>
<path d="M132.639 13.6758L206.093 46.2217L208.978 47.499L210.255 50.3838L242.801 123.838L244.268 127.148L242.801 130.459L210.255 203.913L208.978 206.798L206.093 208.075L132.639 240.621L129.328 242.088L126.018 240.621L52.5635 208.075L49.6787 206.798L48.4014 203.913L15.8555 130.459L14.3887 127.148L15.8555 123.838L48.4014 50.3838L49.6787 47.499L52.5635 46.2217L126.018 13.6758L129.328 12.209L132.639 13.6758Z" stroke="#FFFBE8" stroke-width="16.3462"/>
</g>
<defs>
<filter id="filter0_d_2099_4640" x="0.000468731" y="0.000281096" width="258.655" height="258.655" filterUnits="userSpaceOnUse" color-interpolation-filters="sRGB">
<feFlood flood-opacity="0" result="BackgroundImageFix"/>
<feColorMatrix in="SourceAlpha" type="matrix" values="0 0 0 0 0 0 0 0 0 0 0 0 0 0 0 0 0 0 127 0" result="hardAlpha"/>
<feOffset dy="2.1795"/>
<feGaussianBlur stdDeviation="2.72438"/>
<feComposite in2="hardAlpha" operator="out"/>
<feColorMatrix type="matrix" values="0 0 0 0 0 0 0 0 0 0 0 0 0 0 0 0 0 0 0.25 0"/>
<feBlend mode="normal" in2="BackgroundImageFix" result="effect1_dropShadow_2099_4640"/>
<feBlend mode="normal" in="SourceGraphic" in2="effect1_dropShadow_2099_4640" result="shape"/>
</filter>
</defs>
</svg>
