<svg width="271" height="271" viewBox="0 0 271 271" fill="none" xmlns="http://www.w3.org/2000/svg">
<g filter="url(#filter0_d_2099_4627)">
<mask id="path-1-outside-1_2099_4627" maskUnits="userSpaceOnUse" x="5.44922" y="3.26953" width="261" height="261" fill="black">
<rect fill="white" x="5.44922" y="3.26953" width="261" height="261"/>
<path d="M135.501 19.2695C150.815 19.2695 162.55 32.8824 160.293 48.0293L154.932 84C154.868 84.4293 155.109 84.8455 155.509 85.0122C155.911 85.1795 156.377 85.0551 156.636 84.7052L178.282 55.4805C187.397 43.1741 205.32 41.8461 216.148 52.6748C226.977 63.5035 225.649 81.4264 213.343 90.541L183.99 112.28C183.656 112.527 183.536 112.97 183.694 113.354C183.853 113.741 184.254 113.973 184.667 113.911L220.793 108.53C235.94 106.273 249.553 118.007 249.553 133.321C249.553 148.635 235.94 160.37 220.793 158.113L184.448 152.698C184.062 152.64 183.688 152.855 183.537 153.215C183.385 153.577 183.497 153.998 183.813 154.232L213.343 176.103C225.649 185.217 226.977 203.14 216.148 213.969C205.32 224.797 187.397 223.469 178.282 211.163L156.318 181.509C156.096 181.208 155.696 181.1 155.351 181.243C155.004 181.386 154.797 181.745 154.852 182.116L160.291 218.613C162.548 233.76 150.814 247.373 135.5 247.373C120.186 247.373 108.451 233.76 110.708 218.613L116.146 182.114C116.201 181.744 115.994 181.385 115.648 181.242C115.303 181.1 114.905 181.208 114.683 181.508L92.7197 211.162C83.6051 223.468 65.6822 224.796 54.8535 213.968C44.025 203.139 45.3529 185.216 57.6592 176.102L87.1876 154.23C87.5031 153.997 87.6152 153.577 87.4633 153.215C87.3124 152.855 86.9382 152.64 86.5525 152.698L50.209 158.112C35.0621 160.369 21.4493 148.635 21.4492 133.321C21.4492 118.007 35.0621 106.272 50.209 108.529L86.3321 113.911C86.746 113.973 87.1471 113.74 87.3062 113.353C87.4644 112.968 87.3443 112.525 87.01 112.277L57.6592 90.5381C45.3529 81.4235 44.0248 63.5006 54.8535 52.6719C65.6822 41.8433 83.6051 43.1713 92.7197 55.4775L114.366 84.7045C114.625 85.0542 115.09 85.1786 115.492 85.0113C115.893 84.8445 116.133 84.4285 116.069 83.9995L110.71 48.0293C108.453 32.8825 120.187 19.2696 135.501 19.2695Z"/>
</mask>
<path d="M135.501 19.2695C150.815 19.2695 162.55 32.8824 160.293 48.0293L154.932 84C154.868 84.4293 155.109 84.8455 155.509 85.0122C155.911 85.1795 156.377 85.0551 156.636 84.7052L178.282 55.4805C187.397 43.1741 205.32 41.8461 216.148 52.6748C226.977 63.5035 225.649 81.4264 213.343 90.541L183.99 112.28C183.656 112.527 183.536 112.97 183.694 113.354C183.853 113.741 184.254 113.973 184.667 113.911L220.793 108.53C235.94 106.273 249.553 118.007 249.553 133.321C249.553 148.635 235.94 160.37 220.793 158.113L184.448 152.698C184.062 152.64 183.688 152.855 183.537 153.215C183.385 153.577 183.497 153.998 183.813 154.232L213.343 176.103C225.649 185.217 226.977 203.14 216.148 213.969C205.32 224.797 187.397 223.469 178.282 211.163L156.318 181.509C156.096 181.208 155.696 181.1 155.351 181.243C155.004 181.386 154.797 181.745 154.852 182.116L160.291 218.613C162.548 233.76 150.814 247.373 135.5 247.373C120.186 247.373 108.451 233.76 110.708 218.613L116.146 182.114C116.201 181.744 115.994 181.385 115.648 181.242C115.303 181.1 114.905 181.208 114.683 181.508L92.7197 211.162C83.6051 223.468 65.6822 224.796 54.8535 213.968C44.025 203.139 45.3529 185.216 57.6592 176.102L87.1876 154.23C87.5031 153.997 87.6152 153.577 87.4633 153.215C87.3124 152.855 86.9382 152.64 86.5525 152.698L50.209 158.112C35.0621 160.369 21.4493 148.635 21.4492 133.321C21.4492 118.007 35.0621 106.272 50.209 108.529L86.3321 113.911C86.746 113.973 87.1471 113.74 87.3062 113.353C87.4644 112.968 87.3443 112.525 87.01 112.277L57.6592 90.5381C45.3529 81.4235 44.0248 63.5006 54.8535 52.6719C65.6822 41.8433 83.6051 43.1713 92.7197 55.4775L114.366 84.7045C114.625 85.0542 115.09 85.1786 115.492 85.0113C115.893 84.8445 116.133 84.4285 116.069 83.9995L110.71 48.0293C108.453 32.8825 120.187 19.2696 135.501 19.2695Z" fill="#F89AFF"/>
<path d="M135.501 19.2695V3.26953H135.501L135.501 19.2695ZM160.293 48.0293L176.118 50.3877L176.118 50.3872L160.293 48.0293ZM178.282 55.4805L191.139 65.0036L191.14 65.0033L178.282 55.4805ZM216.148 52.6748L227.462 41.3612L227.462 41.3611L216.148 52.6748ZM213.343 90.541L222.865 103.399L222.866 103.399L213.343 90.541ZM220.793 108.53L223.15 124.356L223.151 124.356L220.793 108.53ZM249.553 133.321H265.553V133.321L249.553 133.321ZM220.793 158.113L218.435 173.939L218.435 173.939L220.793 158.113ZM213.343 176.103L222.866 163.245L222.866 163.245L213.343 176.103ZM216.148 213.969L227.462 225.283L227.462 225.282L216.148 213.969ZM178.282 211.163L191.14 201.64L191.14 201.64L178.282 211.163ZM160.291 218.613L176.116 216.255L176.116 216.255L160.291 218.613ZM135.5 247.373V263.373H135.5L135.5 247.373ZM110.708 218.613L126.533 220.971L126.533 220.971L110.708 218.613ZM92.7197 211.162L105.577 220.685L105.577 220.685L92.7197 211.162ZM54.8535 213.968L43.5397 225.281L43.5398 225.281L54.8535 213.968ZM57.6592 176.102L67.182 188.959L67.1824 188.959L57.6592 176.102ZM50.209 158.112L47.8512 142.287L47.851 142.287L50.209 158.112ZM21.4492 133.321H5.44922V133.321L21.4492 133.321ZM50.209 108.529L47.851 124.355L47.8512 124.355L50.209 108.529ZM57.6592 90.5381L67.1821 77.6807L67.182 77.6806L57.6592 90.5381ZM54.8535 52.6719L43.5399 41.3581L43.5398 41.3582L54.8535 52.6719ZM92.7197 55.4775L105.577 45.9548L105.577 45.9547L92.7197 55.4775ZM110.71 48.0293L126.535 45.6717L126.535 45.6714L110.71 48.0293ZM115.492 85.0113L109.341 70.2411L115.492 85.0113ZM116.069 83.9995L131.894 81.6419L116.069 83.9995ZM114.366 84.7045L127.224 75.1818L114.366 84.7045ZM87.3062 113.353L102.105 119.437L87.3062 113.353ZM87.01 112.277L96.5329 99.4195L87.01 112.277ZM86.3321 113.911L88.6899 98.086L86.3321 113.911ZM87.4633 153.215L102.218 147.025L87.4633 153.215ZM86.5525 152.698L88.9103 168.523L86.5525 152.698ZM87.1876 154.23L77.6644 141.373L87.1876 154.23ZM116.146 182.114L131.971 184.472L116.146 182.114ZM115.648 181.242L109.546 196.033L115.648 181.242ZM156.318 181.509L143.461 191.032L156.318 181.509ZM155.351 181.243L161.456 196.032L155.351 181.243ZM183.694 113.354L168.895 119.435L183.694 113.354ZM184.667 113.911L187.024 129.737L184.667 113.911ZM155.509 85.0122L161.655 70.2397L155.509 85.0122ZM156.636 84.7052L169.493 94.2283L156.636 84.7052ZM114.683 181.508L101.825 171.985L114.683 181.508ZM184.448 152.698L182.09 168.523L184.448 152.698ZM183.537 153.215L168.78 147.032L183.537 153.215ZM154.852 182.116L170.677 179.758L154.852 182.116ZM183.99 112.28L174.468 99.4218L183.99 112.28ZM183.813 154.232L174.29 167.089L183.813 154.232ZM154.932 84L139.107 81.6416L154.932 84ZM135.501 19.2695V35.2695C141.039 35.2695 145.284 40.1932 144.468 45.6714L160.293 48.0293L176.118 50.3872C179.816 25.5716 160.591 3.26953 135.501 3.26953V19.2695ZM160.293 48.0293L144.468 45.6709L139.107 81.6416L154.932 84L170.758 86.3584L176.118 50.3877L160.293 48.0293ZM156.636 84.7052L169.493 94.2283L191.139 65.0036L178.282 55.4805L165.425 45.9573L143.779 75.182L156.636 84.7052ZM178.282 55.4805L191.14 65.0033C194.436 60.5525 200.919 60.0723 204.835 63.9885L216.148 52.6748L227.462 41.3611C209.721 23.6199 180.357 25.7958 165.425 45.9576L178.282 55.4805ZM216.148 52.6748L204.835 63.9884C208.751 67.9048 208.271 74.3871 203.82 77.6835L213.343 90.541L222.866 103.399C243.027 88.4657 245.203 59.1023 227.462 41.3612L216.148 52.6748ZM213.343 90.541L203.82 77.6832L174.468 99.4218L183.99 112.28L193.513 125.137L222.865 103.399L213.343 90.541ZM184.667 113.911L187.024 129.737L223.15 124.356L220.793 108.53L218.436 92.7049L182.31 98.0861L184.667 113.911ZM220.793 108.53L223.151 124.356C228.63 123.539 233.553 127.784 233.553 133.321L249.553 133.321L265.553 133.321C265.553 108.231 243.25 89.0076 218.435 92.705L220.793 108.53ZM249.553 133.321H233.553C233.553 138.86 228.629 143.104 223.151 142.288L220.793 158.113L218.435 173.939C243.251 177.636 265.553 158.411 265.553 133.321H249.553ZM220.793 158.113L223.151 142.288L186.806 136.872L184.448 152.698L182.09 168.523L218.435 173.939L220.793 158.113ZM183.813 154.232L174.29 167.089L203.82 188.96L213.343 176.103L222.866 163.245L193.336 141.374L183.813 154.232ZM213.343 176.103L203.82 188.96C208.271 192.257 208.751 198.739 204.835 202.655L216.148 213.969L227.462 225.282C245.203 207.541 243.027 178.178 222.866 163.245L213.343 176.103ZM216.148 213.969L204.835 202.655C200.918 206.571 194.436 206.091 191.14 201.64L178.282 211.163L165.425 220.686C180.358 240.848 209.721 243.023 227.462 225.283L216.148 213.969ZM178.282 211.163L191.14 201.64L169.175 171.986L156.318 181.509L143.461 191.032L165.425 220.686L178.282 211.163ZM154.852 182.116L139.027 184.474L144.466 220.972L160.291 218.613L176.116 216.255L170.677 179.758L154.852 182.116ZM160.291 218.613L144.466 220.971C145.282 226.45 141.038 231.373 135.5 231.373L135.5 247.373L135.5 263.373C160.59 263.373 179.814 241.07 176.116 216.255L160.291 218.613ZM135.5 247.373V231.373C129.962 231.373 125.717 226.449 126.533 220.971L110.708 218.613L94.8827 216.255C91.1852 241.071 110.41 263.373 135.5 263.373V247.373ZM110.708 218.613L126.533 220.971L131.971 184.472L116.146 182.114L100.321 179.756L94.8827 216.255L110.708 218.613ZM114.683 181.508L101.825 171.985L79.8621 201.639L92.7197 211.162L105.577 220.685L127.54 191.03L114.683 181.508ZM92.7197 211.162L79.8622 201.639C76.5657 206.09 70.0834 206.57 66.1672 202.654L54.8535 213.968L43.5398 225.281C61.281 243.023 90.6445 240.847 105.577 220.685L92.7197 211.162ZM54.8535 213.968L66.1673 202.654C62.251 198.738 62.7313 192.255 67.182 188.959L57.6592 176.102L48.1363 163.244C27.9745 178.177 25.7989 207.54 43.5397 225.281L54.8535 213.968ZM57.6592 176.102L67.1824 188.959L96.7108 167.088L87.1876 154.23L77.6644 141.373L48.136 163.244L57.6592 176.102ZM86.5525 152.698L84.1947 136.872L47.8512 142.287L50.209 158.112L52.5668 173.938L88.9103 168.523L86.5525 152.698ZM50.209 158.112L47.851 142.287C42.3722 143.103 37.4493 138.859 37.4492 133.321L21.4492 133.321L5.44922 133.321C5.4494 158.412 27.7521 177.635 52.5669 173.938L50.209 158.112ZM21.4492 133.321H37.4492C37.4492 127.783 42.3729 123.538 47.851 124.355L50.209 108.529L52.5669 92.704C27.7513 89.0065 5.44922 108.232 5.44922 133.321H21.4492ZM50.209 108.529L47.8512 124.355L83.9743 129.737L86.3321 113.911L88.6899 98.086L52.5668 92.704L50.209 108.529ZM87.01 112.277L96.5329 99.4195L67.1821 77.6807L57.6592 90.5381L48.1362 103.396L77.487 125.134L87.01 112.277ZM57.6592 90.5381L67.182 77.6806C62.7312 74.3841 62.251 67.9018 66.1672 63.9856L54.8535 52.6719L43.5398 41.3582C25.7986 59.0994 27.9746 88.4628 48.1363 103.396L57.6592 90.5381ZM54.8535 52.6719L66.1671 63.9857C70.0835 60.0694 76.5658 60.5497 79.8622 65.0004L92.7197 55.4775L105.577 45.9547C90.6444 25.7929 61.281 23.6173 43.5399 41.3581L54.8535 52.6719ZM92.7197 55.4775L79.8622 65.0003L101.509 94.2273L114.366 84.7045L127.224 75.1818L105.577 45.9548L92.7197 55.4775ZM116.069 83.9995L131.894 81.6419L126.535 45.6717L110.71 48.0293L94.8846 50.3869L100.243 86.3571L116.069 83.9995ZM110.71 48.0293L126.535 45.6714C125.719 40.1925 129.963 35.2696 135.501 35.2695L135.501 19.2695L135.501 3.26953C110.411 3.26971 91.1873 25.5724 94.8847 50.3872L110.71 48.0293ZM115.492 85.0113L121.644 99.7814C128.677 96.8521 133.06 89.4657 131.894 81.6419L116.069 83.9995L100.243 86.3571C99.2056 79.3913 103.108 72.8369 109.341 70.2411L115.492 85.0113ZM114.366 84.7045L101.509 94.2273C106.221 100.59 114.572 102.727 121.644 99.7814L115.492 85.0113L109.341 70.2411C115.609 67.6304 123.029 69.5182 127.224 75.1818L114.366 84.7045ZM87.3062 113.353L102.105 119.437C105.004 112.383 102.848 104.097 96.5329 99.4195L87.01 112.277L77.487 125.134C71.84 120.952 69.9246 113.554 72.5078 107.27L87.3062 113.353ZM86.3321 113.911L83.9743 129.737C91.8117 130.904 99.2036 126.493 102.105 119.437L87.3062 113.353L72.5078 107.27C75.0906 100.987 81.6803 97.0416 88.6899 98.086L86.3321 113.911ZM87.4633 153.215L102.218 147.025C99.2878 140.041 91.9468 135.717 84.1947 136.872L86.5525 152.698L88.9103 168.523C81.9295 169.563 75.337 165.669 72.709 159.404L87.4633 153.215ZM87.1876 154.23L96.7108 167.088C103.041 162.399 105.176 154.077 102.218 147.025L87.4633 153.215L72.709 159.404C70.0545 153.077 71.9656 145.594 77.6644 141.373L87.1876 154.23ZM116.146 182.114L131.971 184.472C133.128 176.707 128.776 169.35 121.75 166.452L115.648 181.242L109.546 196.033C103.212 193.42 99.2742 186.781 100.321 179.756L116.146 182.114ZM156.318 181.509L169.175 171.986C164.522 165.702 156.271 163.554 149.246 166.453L155.351 181.243L161.456 196.032C155.122 198.647 147.669 196.714 143.461 191.032L156.318 181.509ZM183.694 113.354L168.895 119.435C171.795 126.494 179.188 130.904 187.024 129.737L184.667 113.911L182.31 98.0861C189.319 97.0419 195.911 100.988 198.494 107.273L183.694 113.354ZM155.509 85.0122L149.363 99.7848C156.432 102.726 164.78 100.592 169.493 94.2283L156.636 84.7052L143.779 75.182C147.973 69.5186 155.391 67.6335 161.655 70.2397L155.509 85.0122ZM115.648 181.242L121.75 166.452C114.728 163.555 106.478 165.702 101.825 171.985L114.683 181.508L127.54 191.03C123.331 196.713 115.879 198.646 109.546 196.033L115.648 181.242ZM184.448 152.698L186.806 136.872C179.054 135.717 171.709 140.042 168.78 147.032L183.537 153.215L198.294 159.398C195.666 165.669 189.07 169.563 182.09 168.523L184.448 152.698ZM155.351 181.243L149.246 166.453C142.223 169.352 137.87 176.708 139.027 184.474L154.852 182.116L170.677 179.758C171.724 186.782 167.786 193.419 161.456 196.032L155.351 181.243ZM183.99 112.28L174.468 99.4218C168.152 104.099 165.997 112.383 168.895 119.435L183.694 113.354L198.494 107.273C201.076 113.557 199.16 120.955 193.513 125.137L183.99 112.28ZM183.537 153.215L168.78 147.032C165.826 154.08 167.959 162.4 174.29 167.089L183.813 154.232L193.336 141.374C199.035 145.595 200.943 153.075 198.294 159.398L183.537 153.215ZM154.932 84L139.107 81.6416C137.941 89.4658 142.324 96.8562 149.363 99.7848L155.509 85.0122L161.655 70.2397C167.893 72.8349 171.796 79.3927 170.758 86.3584L154.932 84Z" fill="#FFFBE8" mask="url(#path-1-outside-1_2099_4627)"/>
<circle cx="135.5" cy="133.068" r="38.9508" fill="#FFE69A"/>
</g>
<defs>
<filter id="filter0_d_2099_4627" x="0.000468731" y="0.000281096" width="271.001" height="271.001" filterUnits="userSpaceOnUse" color-interpolation-filters="sRGB">
<feFlood flood-opacity="0" result="BackgroundImageFix"/>
<feColorMatrix in="SourceAlpha" type="matrix" values="0 0 0 0 0 0 0 0 0 0 0 0 0 0 0 0 0 0 127 0" result="hardAlpha"/>
<feOffset dy="2.1795"/>
<feGaussianBlur stdDeviation="2.72438"/>
<feComposite in2="hardAlpha" operator="out"/>
<feColorMatrix type="matrix" values="0 0 0 0 0 0 0 0 0 0 0 0 0 0 0 0 0 0 0.25 0"/>
<feBlend mode="normal" in2="BackgroundImageFix" result="effect1_dropShadow_2099_4627"/>
<feBlend mode="normal" in="SourceGraphic" in2="effect1_dropShadow_2099_4627" result="shape"/>
</filter>
</defs>
</svg>
