<svg width="326" height="204" viewBox="0 0 326 204" fill="none" xmlns="http://www.w3.org/2000/svg">
<g filter="url(#filter0_d_2099_4660)">
<mask id="path-1-outside-1_2099_4660" maskUnits="userSpaceOnUse" x="2.17969" y="0" width="322" height="199" fill="black">
<rect fill="white" x="2.17969" width="322" height="199"/>
<path d="M130.643 16C147.843 16 162.984 25.1093 171.816 38.918C180.852 27.0568 194.862 19.4424 210.59 19.4424C229.055 19.4424 245.148 29.9408 253.608 45.4824C283.583 46.5708 307.578 73.5826 307.578 106.746C307.578 140.6 282.572 168.044 251.728 168.044C239.732 168.044 228.619 163.893 219.518 156.828C211.044 172.322 194.976 182.781 176.545 182.781C163.143 182.781 150.991 177.248 142.099 168.273C133.752 174.968 123.276 178.955 111.898 178.955C95.5619 178.955 81.0824 170.738 72.1016 158.081C70.5948 158.224 69.0683 158.299 67.5254 158.299C40.2727 158.299 18.1797 135.435 18.1797 107.231C18.1799 83.5275 33.7863 63.5962 54.9453 57.8398C56.6709 45.5918 66.8746 36.1846 79.2061 36.1846C82.9487 36.1846 86.4947 37.0531 89.668 38.6025C98.5283 24.9697 113.573 16 130.643 16Z"/>
</mask>
<path d="M130.643 16C147.843 16 162.984 25.1093 171.816 38.918C180.852 27.0568 194.862 19.4424 210.59 19.4424C229.055 19.4424 245.148 29.9408 253.608 45.4824C283.583 46.5708 307.578 73.5826 307.578 106.746C307.578 140.6 282.572 168.044 251.728 168.044C239.732 168.044 228.619 163.893 219.518 156.828C211.044 172.322 194.976 182.781 176.545 182.781C163.143 182.781 150.991 177.248 142.099 168.273C133.752 174.968 123.276 178.955 111.898 178.955C95.5619 178.955 81.0824 170.738 72.1016 158.081C70.5948 158.224 69.0683 158.299 67.5254 158.299C40.2727 158.299 18.1797 135.435 18.1797 107.231C18.1799 83.5275 33.7863 63.5962 54.9453 57.8398C56.6709 45.5918 66.8746 36.1846 79.2061 36.1846C82.9487 36.1846 86.4947 37.0531 89.668 38.6025C98.5283 24.9697 113.573 16 130.643 16Z" fill="#FFFBE8"/>
<path d="M130.643 16V0H130.643L130.643 16ZM171.816 38.918L158.338 47.5394L170.672 66.8226L184.544 48.614L171.816 38.918ZM210.59 19.4424V3.44238H210.59L210.59 19.4424ZM253.608 45.4824L239.556 53.1325L243.915 61.141L253.028 61.4719L253.608 45.4824ZM307.578 106.746L323.578 106.746V106.746H307.578ZM251.728 168.044L251.727 184.044H251.728V168.044ZM219.518 156.828L229.328 144.189L214.491 132.673L205.48 149.151L219.518 156.828ZM176.545 182.781L176.545 198.781H176.545V182.781ZM142.099 168.273L153.464 157.012L143.325 146.779L132.088 155.792L142.099 168.273ZM111.898 178.955L111.898 194.955H111.898V178.955ZM72.1016 158.081L85.1503 148.822L79.7963 141.277L70.5859 142.153L72.1016 158.081ZM67.5254 158.299L67.5253 174.299H67.5254V158.299ZM18.1797 107.231L2.17969 107.231V107.231H18.1797ZM54.9453 57.8398L59.1455 73.2787L69.3181 70.5112L70.7888 60.072L54.9453 57.8398ZM79.2061 36.1846V20.1846H79.206L79.2061 36.1846ZM89.668 38.6025L82.6478 52.9802L95.369 59.1915L103.084 47.3216L89.668 38.6025ZM130.643 16V32C141.997 32 152.23 37.9905 158.338 47.5394L171.816 38.918L185.295 30.2966C173.738 12.2281 153.689 0 130.643 0V16ZM171.816 38.918L184.544 48.614C190.763 40.4507 200.191 35.4424 210.59 35.4424L210.59 19.4424L210.59 3.44238C189.533 3.44242 170.942 13.6629 159.089 29.222L171.816 38.918ZM210.59 19.4424V35.4424C222.767 35.4424 233.686 42.3503 239.556 53.1325L253.608 45.4824L267.661 37.8324C256.609 17.5313 235.343 3.44238 210.59 3.44238V19.4424ZM253.608 45.4824L253.028 61.4719C273.13 62.2018 291.578 80.8662 291.578 106.746H307.578H323.578C323.578 66.2989 294.036 30.9398 254.189 29.493L253.608 45.4824ZM307.578 106.746L291.578 106.746C291.578 133.197 272.367 152.044 251.728 152.044V168.044V184.044C292.778 184.044 323.578 148.003 323.578 106.746L307.578 106.746ZM251.728 168.044L251.728 152.044C243.525 152.044 235.82 149.227 229.328 144.189L219.518 156.828L209.707 169.468C221.419 178.558 235.939 184.044 251.727 184.044L251.728 168.044ZM219.518 156.828L205.48 149.151C199.602 159.899 188.701 166.781 176.545 166.781V182.781V198.781C201.251 198.781 222.487 184.745 233.556 164.505L219.518 156.828ZM176.545 182.781L176.545 166.781C167.666 166.781 159.536 163.14 153.464 157.012L142.099 168.273L130.733 179.535C142.446 191.357 158.619 198.781 176.545 198.781L176.545 182.781ZM142.099 168.273L132.088 155.792C126.436 160.325 119.455 162.955 111.898 162.955V178.955V194.955C127.097 194.955 141.068 189.611 152.109 180.755L142.099 168.273ZM111.898 178.955L111.899 162.955C101.106 162.955 91.3447 157.552 85.1503 148.822L72.1016 158.081L59.0528 167.34C70.8201 183.924 90.0179 194.955 111.898 194.955L111.898 178.955ZM72.1016 158.081L70.5859 142.153C69.5744 142.249 68.5536 142.299 67.5254 142.299V158.299V174.299C69.5829 174.299 71.6153 174.2 73.6172 174.009L72.1016 158.081ZM67.5254 158.299L67.5255 142.299C49.622 142.299 34.1797 127.12 34.1797 107.231H18.1797H2.17969C2.17969 143.75 30.9234 174.299 67.5253 174.299L67.5254 158.299ZM18.1797 107.231L34.1797 107.232C34.1798 90.5959 45.0965 77.1008 59.1455 73.2787L54.9453 57.8398L50.7451 42.401C22.4761 50.0916 2.1799 76.4592 2.17969 107.231L18.1797 107.231ZM54.9453 57.8398L70.7888 60.072C71.4741 55.208 75.3553 52.1846 79.2061 52.1846L79.2061 36.1846L79.206 20.1846C58.394 20.1847 41.8677 35.9756 39.1018 55.6077L54.9453 57.8398ZM79.2061 36.1846V52.1846C80.4431 52.1846 81.5946 52.4659 82.6478 52.9802L89.668 38.6025L96.6881 24.2249C91.3948 21.6403 85.4543 20.1846 79.2061 20.1846V36.1846ZM89.668 38.6025L103.084 47.3216C109.207 37.8998 119.371 32 130.643 32L130.643 16L130.643 0C107.775 3.24249e-05 87.8496 12.0395 76.2524 29.8834L89.668 38.6025Z" fill="#4EA0FF" mask="url(#path-1-outside-1_2099_4660)"/>
</g>
<defs>
<filter id="filter0_d_2099_4660" x="0.000187635" y="0" width="325.757" height="203.14" filterUnits="userSpaceOnUse" color-interpolation-filters="sRGB">
<feFlood flood-opacity="0" result="BackgroundImageFix"/>
<feColorMatrix in="SourceAlpha" type="matrix" values="0 0 0 0 0 0 0 0 0 0 0 0 0 0 0 0 0 0 127 0" result="hardAlpha"/>
<feOffset dy="2.1795"/>
<feGaussianBlur stdDeviation="1.08975"/>
<feComposite in2="hardAlpha" operator="out"/>
<feColorMatrix type="matrix" values="0 0 0 0 0 0 0 0 0 0 0 0 0 0 0 0 0 0 0.25 0"/>
<feBlend mode="normal" in2="BackgroundImageFix" result="effect1_dropShadow_2099_4660"/>
<feBlend mode="normal" in="SourceGraphic" in2="effect1_dropShadow_2099_4660" result="shape"/>
</filter>
</defs>
</svg>
