<svg preserveAspectRatio="none" width="100%" height="100%" overflow="visible" style="display: block;" viewBox="0 0 420 255.993" fill="none" xmlns="http://www.w3.org/2000/svg">
<g id="Group 263">
<path id="Vector" d="M46.9924 108.087H46.9775V108.102C46.9775 108.102 46.9924 108.102 46.9924 108.087Z" fill="var(--fill-0, #DB2729)"/>
<path id="Vector_2" d="M37.8078 15.6433C37.5543 15.8455 37.3008 16.062 37.0473 16.2641C35.0121 17.8884 32.9986 19.5848 31.043 21.4689C18.6359 33.3943 12.7982 47.6298 13.6963 63.7927C14.6379 80.7424 23.5176 94.3354 40.1183 104.362C41.3134 103.626 42.7258 102.947 43.9643 102.233L44.4206 101.973C49.3675 99.0853 71.6755 88.2066 77.4191 85.3768C77.8392 85.1747 78.2376 84.9654 78.6504 84.7633C64.1864 76.7071 47.9117 59.5552 58.24 40.5121C60.297 36.715 63.4766 33.5532 67.0111 31.0699C80.4684 21.5988 100.792 23.0931 107.238 35.1846C95.8667 10.121 65.338 2.20916 37.8078 15.6433Z" fill="url(#paint0_linear_0_10)"/>
<path id="Vector_3" d="M129.698 29.3156C126.149 22.8909 121.68 17.1159 116.292 12.4309C110.287 7.21171 103.131 3.34966 94.8239 1.46555C80.7003 -1.74681 65.0484 0.447701 51.4173 7.0168C46.5718 9.35569 41.9943 12.4886 37.8079 15.6505C37.8152 15.6505 37.8224 15.6505 37.8297 15.6433C65.3381 2.21631 95.8668 10.1281 107.231 35.1845C108.875 38.8156 110.128 42.7931 110.903 47.1316C116.842 80.4103 70.017 94.4508 46.9991 108.094C46.9991 108.094 46.9847 108.102 46.9847 108.109C-13.1312 142.911 -13.1095 201.13 33.1363 235.333C24.0537 222.974 18.6723 207.815 18.6578 191.948C18.6433 177.604 23.0542 163.34 31.9267 151.176C58.9716 114.093 134.355 106.838 135.963 53.6791C136.224 45.0454 133.762 36.6644 129.706 29.3229L129.698 29.3156Z" fill="var(--fill-0, #DB2729)"/>
<g id="Vector_4">
</g>
<path id="Vector_5" d="M68.9084 228.467V228.446C58.3555 220.967 51.8007 208.298 51.5979 193.673C51.3444 175.611 62.665 162.386 77.5346 151.529C94.2947 139.294 115.56 130.068 129.828 120.33C185.323 84.1781 170.236 22.082 116.755 7.67334C131.371 14.8127 139.686 33.3217 142.083 48.7266C145.096 68.0946 135.724 87.145 119.29 99.7779C94.3309 118.973 64.9103 127.173 43.7828 148.793C0.36903 193.203 38.0247 256.079 92.4188 255.992C118.254 255.949 143.423 241.129 157.778 219.184C115.647 264.005 68.9084 228.467 68.9084 228.467Z" fill="url(#paint1_linear_0_10)"/>
<path id="Vector_6" d="M136.26 124.098C135.318 124.755 134.398 125.419 133.428 126.047C127.996 129.758 106.608 141.199 99.8282 144.932C117.211 156.677 131.081 174.55 127.554 197.903C126.076 207.677 120.731 217.083 112.764 223.32C101.328 232.279 77.1073 234.863 66.4893 226.569L68.8432 228.475C68.8432 228.475 115.639 264.006 157.771 219.184C157.894 218.996 158.018 218.801 158.141 218.607C158.655 217.82 159.184 217.033 159.662 216.224C181.499 179.372 167.274 143.95 136.253 124.098H136.26Z" fill="url(#paint2_linear_0_10)"/>
<path id="Vector_7" d="M182.962 190.222C181.506 201.188 177.711 212.283 171.308 223.082C171.077 223.472 170.823 223.847 170.584 224.223C183.752 224.887 202.952 224.136 226.18 218.181C267.66 207.547 330.804 177.741 395.968 95.8799C374.732 117.969 295.017 202.667 182.969 190.215L182.962 190.222Z" fill="url(#paint3_linear_0_10)"/>
<path id="Vector_8" d="M227.448 225.169C200.86 231.918 179.573 232.164 165.942 231.074C158.923 240.574 150.246 248.623 140.541 254.86C148.841 255.177 157.113 255.091 165.319 254.513C182.579 253.271 199.52 250.211 215.744 245.468C231.968 240.689 247.431 234.243 262.011 226.649C291.258 211.467 316.47 191.132 338.532 168.819C344.406 162.878 350.027 156.756 355.444 150.498C305.881 196.994 260.143 216.867 227.441 225.169H227.448Z" fill="url(#paint4_linear_0_10)"/>
<path id="Vector_9" d="M418.175 70.1523C412.207 77.104 401.704 77.9198 394.729 71.9715C401.704 77.9198 402.523 88.387 396.555 95.3387C402.523 88.387 413.025 87.5713 420 93.5196C413.025 87.5713 412.207 77.104 418.175 70.1523Z" fill="var(--fill-0, #F7941D)"/>
<path id="Vector_10" d="M335.504 65.8139C318.491 41.1545 289.824 25.1649 257.549 25.6847C206.328 26.5076 165.471 68.5643 166.304 119.616C166.637 140.167 173.756 158.98 185.389 174.146C215.809 177.12 243.831 173.006 268.877 164.957C265.951 165.563 262.931 165.931 259.824 165.982C233.307 166.408 211.463 145.329 211.036 118.901C210.63 93.6929 229.867 72.7656 254.659 70.5134C264.104 69.0335 295.364 64.76 335.504 65.8211V65.8139Z" fill="url(#paint5_linear_0_10)"/>
<path id="Vector_11" d="M254.659 70.5128C255.854 70.4045 257.057 70.289 258.273 70.2746C284.79 69.8487 306.634 90.9276 307.061 117.356C307.366 136.139 296.74 152.526 281.067 160.611C308.974 149.876 332.788 134.659 351.678 119.969C351.699 118.857 351.808 117.76 351.793 116.634C351.489 97.7493 345.492 80.2943 335.504 65.8134C295.357 64.7522 264.097 69.0257 254.659 70.5056V70.5128Z" fill="url(#paint6_linear_0_10)"/>
</g>
<defs>
<linearGradient id="paint0_linear_0_10" x1="-11.8213" y1="31.7933" x2="-3.33844" y2="86.8992" gradientUnits="userSpaceOnUse">
<stop stop-color="#A70D17"/>
<stop offset="1" stop-color="#DB2729"/>
</linearGradient>
<linearGradient id="paint1_linear_0_10" x1="-9.44767" y1="223.34" x2="110.046" y2="59.6476" gradientUnits="userSpaceOnUse">
<stop stop-color="#DB2729"/>
<stop offset="1" stop-color="#F7941D"/>
</linearGradient>
<linearGradient id="paint2_linear_0_10" x1="65.0913" y1="232.299" x2="53.4254" y2="156.515" gradientUnits="userSpaceOnUse">
<stop stop-color="#A70D17"/>
<stop offset="1" stop-color="#DB2729"/>
</linearGradient>
<linearGradient id="paint3_linear_0_10" x1="205.294" y1="231.444" x2="285.395" y2="148.445" gradientUnits="userSpaceOnUse">
<stop stop-color="#A70D17"/>
<stop offset="1" stop-color="#DB2729"/>
</linearGradient>
<linearGradient id="paint4_linear_0_10" x1="201.866" y1="250.639" x2="279.723" y2="169.972" gradientUnits="userSpaceOnUse">
<stop stop-color="#A70D17"/>
<stop offset="1" stop-color="#DB2729"/>
</linearGradient>
<linearGradient id="paint5_linear_0_10" x1="188.612" y1="120.383" x2="294.291" y2="80.5479" gradientUnits="userSpaceOnUse">
<stop stop-color="#DB2729"/>
<stop offset="1" stop-color="#F7941D"/>
</linearGradient>
<linearGradient id="paint6_linear_0_10" x1="303.841" y1="63.387" x2="302.137" y2="148.463" gradientUnits="userSpaceOnUse">
<stop stop-color="#DB2729"/>
<stop offset="1" stop-color="#F7941D"/>
</linearGradient>
</defs>
</svg>
