<svg preserveAspectRatio="none" width="100%" height="100%" overflow="visible" style="display: block;" viewBox="0 0 46 46" fill="none" xmlns="http://www.w3.org/2000/svg">
<path id="Ellipse 225" d="M46 23C46 28.0631 44.3294 32.9847 41.2472 37.0015C38.1649 41.0184 33.8434 43.9059 28.9529 45.2163C24.0623 46.5267 18.876 46.1868 14.1983 44.2493C9.52063 42.3117 5.61299 38.8848 3.08145 34.5C0.549905 30.1153 -0.464065 25.0177 0.196801 19.9979C0.857666 14.9782 3.15643 10.3167 6.73658 6.73658C10.3167 3.15643 14.9782 0.857667 19.9979 0.196801C25.0177 -0.464065 30.1153 0.549904 34.5 3.08145L31.05 9.05702C27.9807 7.28494 24.4124 6.57516 20.8986 7.03777C17.3847 7.50038 14.1217 9.10951 11.6156 11.6156C9.10951 14.1217 7.50038 17.3847 7.03777 20.8986C6.57516 24.4124 7.28494 27.9807 9.05702 31.05C10.8291 34.1194 13.5645 36.5182 16.8388 37.8745C20.1132 39.2308 23.7436 39.4687 27.167 38.5514C30.5904 37.6341 33.6155 35.6129 35.773 32.8011C37.9306 29.9893 39.1 26.5442 39.1 23H46Z" fill="url(#paint0_linear_0_7)"/>
<defs>
<linearGradient id="paint0_linear_0_7" x1="23" y1="3.25219e-05" x2="23" y2="46" gradientUnits="userSpaceOnUse">
<stop stop-color="#FF3D3D"/>
<stop offset="1" stop-color="#FDA72E"/>
</linearGradient>
</defs>
</svg>
