<svg preserveAspectRatio="none" width="100%" height="100%" overflow="visible" style="display: block;" viewBox="0 0 12 12.0002" fill="none" xmlns="http://www.w3.org/2000/svg">
<g id="Group">
<path id="Vector" d="M9.92313 2.79753C9.92313 2.39872 9.5999 2.07669 9.20258 2.07669C8.80523 2.07669 8.48172 2.39872 8.48172 2.79753C8.48172 3.19488 8.80523 3.5169 9.20258 3.5169C9.5999 3.5169 9.92313 3.19488 9.92313 2.79753" fill="url(#paint0_linear_0_193)"/>
<path id="Vector_2" d="M10.8833 8.42442C10.8566 9.00947 10.7587 9.32734 10.6775 9.53846C10.5684 9.81838 10.4382 10.0185 10.2271 10.2285C10.0183 10.4384 9.81818 10.5683 9.53825 10.6762C9.32713 10.7587 9.00807 10.8568 8.42304 10.8847C7.79056 10.9126 7.60315 10.9185 5.99925 10.9185C4.39685 10.9185 4.20795 10.9126 3.57547 10.8847C2.99044 10.8568 2.67287 10.7587 2.46173 10.6762C2.18033 10.5683 1.98167 10.4384 1.77173 10.2285C1.5603 10.0185 1.43014 9.81838 1.3225 9.53846C1.24124 9.32734 1.14192 9.00947 1.1167 8.42442C1.08587 7.79194 1.08023 7.60157 1.08023 6.00095C1.08023 4.39706 1.08587 4.20816 1.1167 3.57567C1.14192 2.99065 1.24124 2.67307 1.3225 2.46015C1.43014 2.18054 1.5603 1.98156 1.77173 1.77162C1.98167 1.562 2.18033 1.43181 2.46173 1.3227C2.67287 1.23997 2.99044 1.1433 3.57547 1.11543C4.20795 1.08755 4.39685 1.08043 5.99925 1.08043C7.60315 1.08043 7.79056 1.08755 8.42304 1.11543C9.00807 1.1433 9.32713 1.23997 9.53825 1.3227C9.81818 1.43181 10.0183 1.562 10.2271 1.77162C10.4382 1.98156 10.5684 2.18054 10.6775 2.46015C10.7587 2.67307 10.8566 2.99065 10.8833 3.57567C10.9126 4.20816 10.9198 4.39706 10.9198 6.00095C10.9198 7.60157 10.9126 7.79194 10.8833 8.42442V8.42442ZM11.9635 3.52646C11.9342 2.88715 11.8333 2.45037 11.6836 2.06994C11.5312 1.67526 11.3269 1.34078 10.9924 1.00631C10.6594 0.673319 10.3249 0.469007 9.93026 0.314822C9.54835 0.166553 9.11304 0.0645417 8.47344 0.0366759C7.83384 0.00583008 7.62955 0.000202654 5.99925 0.000202654C4.37045 0.000202654 4.16467 0.00583008 3.52507 0.0366759C2.88694 0.0645417 2.45194 0.166553 2.06825 0.314822C1.67506 0.469007 1.34058 0.673319 1.00759 1.00631C0.673115 1.34078 0.468803 1.67526 0.314908 2.06994C0.166639 2.45037 0.0658281 2.88715 0.0349823 3.52646C0.00711655 4.16606 0 4.37066 0 6.00095C0 7.62975 0.00711655 7.83404 0.0349823 8.47364C0.0658281 9.11177 0.166639 9.54824 0.314908 9.93047C0.468803 10.3237 0.673115 10.6596 1.00759 10.9926C1.34058 11.3256 1.67506 11.5314 2.06825 11.6853C2.45194 11.8335 2.88694 11.9344 3.52507 11.9637C4.16467 11.9931 4.37045 12.0002 5.99925 12.0002C7.62955 12.0002 7.83384 11.9931 8.47344 11.9637C9.11304 11.9344 9.54835 11.8335 9.93026 11.6853C10.3249 11.5314 10.6594 11.3256 10.9924 10.9926C11.3269 10.6596 11.5312 10.3237 11.6836 9.93047C11.8333 9.54824 11.9342 9.11177 11.9635 8.47364C11.9929 7.83404 12 7.62975 12 6.00095C12 4.37066 11.9929 4.16606 11.9635 3.52646V3.52646Z" fill="url(#paint1_linear_0_193)"/>
<path id="Vector_3" d="M5.99924 7.99914C4.89529 7.99914 3.99949 7.10481 3.99949 6.00085C3.99949 4.89512 4.89529 3.99963 5.99924 3.99963C7.10351 3.99963 8.00048 4.89512 8.00048 6.00085C8.00048 7.10481 7.10351 7.99914 5.99924 7.99914V7.99914ZM5.99924 2.91792C4.2975 2.91792 2.91926 4.29911 2.91926 6.00085C2.91926 7.70113 4.2975 9.08085 5.99924 9.08085C7.70099 9.08085 9.08071 7.70113 9.08071 6.00085C9.08071 4.29911 7.70099 2.91792 5.99924 2.91792Z" fill="url(#paint2_linear_0_193)"/>
</g>
<defs>
<linearGradient id="paint0_linear_0_193" x1="0.108216" y1="11.8761" x2="11.0005" y2="0.983817" gradientUnits="userSpaceOnUse">
<stop stop-color="#FFD521"/>
<stop offset="0.05" stop-color="#FFD521"/>
<stop offset="0.501119" stop-color="#F50000"/>
<stop offset="0.95" stop-color="#B900B4"/>
<stop offset="0.950079" stop-color="#B900B4"/>
<stop offset="1" stop-color="#B900B4"/>
</linearGradient>
<linearGradient id="paint1_linear_0_193" x1="0.108238" y1="11.8911" x2="11.0095" y2="0.989851" gradientUnits="userSpaceOnUse">
<stop stop-color="#FFD521"/>
<stop offset="0.05" stop-color="#FFD521"/>
<stop offset="0.501119" stop-color="#F50000"/>
<stop offset="0.95" stop-color="#B900B4"/>
<stop offset="0.950079" stop-color="#B900B4"/>
<stop offset="1" stop-color="#B900B4"/>
</linearGradient>
<linearGradient id="paint2_linear_0_193" x1="0.111051" y1="11.8913" x2="11.0096" y2="0.992686" gradientUnits="userSpaceOnUse">
<stop stop-color="#FFD521"/>
<stop offset="0.05" stop-color="#FFD521"/>
<stop offset="0.501119" stop-color="#F50000"/>
<stop offset="0.95" stop-color="#B900B4"/>
<stop offset="0.950079" stop-color="#B900B4"/>
<stop offset="1" stop-color="#B900B4"/>
</linearGradient>
</defs>
</svg>
